ply
format ascii 1.0
element vertex 514
property float x
property float y
property float z
element face 1024
property list uchar int vertex_indices
end_header
-0.200012 -0.200012 -0.200012
0.200012 0.200012 -0.200012
0.200012 -0.200012 0.200012
-0.200012 0.200012 0.200012
0.294922 -3.49246e-10 -4.65661e-10
-3.49246e-10 -4.65661e-10 0.294922
-4.65661e-10 0.294922 4.65661e-10
-3.49246e-10 4.65661e-10 -0.294922
-4.65661e-10 -0.294922 -4.65661e-10
-0.294922 3.49246e-10 -4.65661e-10
0.0263672 0.196777 0.196777
0.196777 0.196777 0.0263672
0.196777 0.0263672 0.196777
0.0263672 -0.196777 -0.196777
0.196777 -0.196777 -0.0263673
0.196777 -0.0263672 -0.196777
-0.196777 -0.196777 0.0263672
-0.196777 -0.0263673 0.196777
-0.0263672 -0.196777 0.196777
-0.196777 0.196777 -0.0263672
-0.196777 0.0263673 -0.196777
-0.0263673 0.196777 -0.196777
-0.147705 0.147705 0.250732
-0.147705 0.250732 0.147705
0.147705 0.250732 -0.147705
0.250732 0.147705 -0.147705
0.250732 -0.147705 0.147705
0.147705 -0.147705 0.250732
-0.147705 -0.147705 -0.250732
-0.147705 -0.250732 -0.147705
0.147705 -0.250732 0.147705
0.147705 0.147705 -0.250732
-0.250732 -0.147705 -0.147705
-0.250732 0.147705 0.147705
0.206299 0.118531 0.118531
0.118531 0.118531 0.206299
0.118531 0.206299 0.118531
0.206299 -0.118531 -0.118531
0.118531 -0.118531 -0.206299
0.118531 -0.206299 -0.118531
-0.118531 -0.118531 0.206299
-0.118531 -0.206299 0.118531
-0.206299 -0.118531 0.118531
-0.118531 0.118531 -0.206299
-0.118531 0.206299 -0.118531
-0.206299 0.118531 -0.118531
-0.137329 0.213135 0.213135
-0.065857 0.244568 0.172668
-0.065857 0.172668 0.244568
0.213135 0.213135 -0.137329
0.244568 0.172668 -0.065857
0.172668 0.244568 -0.065857
0.213135 -0.137329 0.213135
0.172668 -0.065857 0.244568
0.244568 -0.065857 0.172668
-0.137329 -0.213135 -0.213135
-0.065857 -0.244568 -0.172668
-0.065857 -0.172668 -0.244568
0.172668 -0.244568 0.065857
0.213135 -0.213135 0.137329
0.244568 -0.172668 0.065857
0.213135 0.137329 -0.213135
0.172668 0.065857 -0.244568
0.244568 0.065857 -0.172668
-0.213135 -0.213135 -0.137329
-0.244568 -0.172668 -0.065857
-0.172668 -0.244568 -0.065857
-0.244568 0.065857 0.172668
-0.213135 0.137329 0.213135
-0.172668 0.065857 0.244568
0.137329 -0.213135 0.213135
0.065857 -0.244568 0.172668
0.065857 -0.172668 0.244568
-0.213135 0.213135 0.137329
-0.244568 0.172668 0.065857
-0.172668 0.244568 0.065857
-0.244568 -0.065857 -0.172668
-0.213135 -0.137329 -0.213135
-0.172668 -0.065857 -0.244568
0.065857 0.172668 -0.244568
0.137329 0.213135 -0.213135
0.065857 0.244568 -0.172668
0.26648 0.103394 0.0187989
0.26648 0.0187989 0.103394
0.103394 0.0187989 0.26648
0.0187989 0.103394 0.26648
0.0187989 0.26648 0.103394
0.103394 0.26648 0.0187989
0.26648 -0.103394 -0.0187989
0.26648 -0.0187989 -0.103394
0.103394 -0.0187989 -0.26648
0.0187989 -0.103394 -0.26648
0.0187989 -0.26648 -0.103394
0.103394 -0.26648 -0.0187989
-0.103394 -0.0187989 0.26648
-0.0187989 -0.103394 0.26648
-0.0187989 -0.26648 0.103394
-0.103394 -0.26648 0.0187989
-0.26648 -0.103394 0.0187989
-0.26648 -0.0187989 0.103394
-0.103394 0.0187989 -0.26648
-0.0187989 0.103394 -0.26648
-0.0187989 0.26648 -0.103394
-0.103394 0.26648 -0.0187989
-0.26648 0.103394 -0.0187989
-0.26648 0.0187989 -0.103394
-0.18811 0.18811 0.217285
-0.18811 0.217285 0.18811
-0.0811158 0.281189 0.0811158
-0.0811158 0.0811158 0.281189
0.18811 0.217285 -0.18811
0.217285 0.18811 -0.18811
0.281189 0.0811158 -0.0811158
0.0811158 0.281189 -0.0811158
0.217285 -0.18811 0.18811
0.18811 -0.18811 0.217285
0.0811158 -0.0811158 0.281189
0.281189 -0.0811158 0.0811158
-0.18811 -0.18811 -0.217285
-0.18811 -0.217285 -0.18811
-0.0811158 -0.281189 -0.0811158
-0.0811158 -0.0811158 -0.281189
0.0811158 -0.281189 0.0811158
0.18811 -0.217285 0.18811
0.18811 0.18811 -0.217285
0.0811158 0.0811158 -0.281189
-0.217285 -0.18811 -0.18811
-0.281189 -0.0811158 -0.0811158
-0.281189 0.0811158 0.0811158
-0.217285 0.18811 0.18811
0.120606 0.164795 0.164795
0.164795 0.164795 0.120606
0.164795 0.120606 0.164795
0.120606 -0.164795 -0.164795
0.164795 -0.164795 -0.120606
0.164795 -0.120606 -0.164795
-0.164795 -0.164795 0.120606
-0.164795 -0.120606 0.164795
-0.120606 -0.164795 0.164795
-0.164795 0.164795 -0.120606
-0.164795 0.120606 -0.164795
-0.120606 0.164795 -0.164795
-0.0637207 0.211914 0.211914
-0.103882 0.197143 0.229126
-0.103882 0.229126 0.197143
0.211914 0.211914 -0.0637207
0.197143 0.229126 -0.103882
0.229126 0.197143 -0.103882
0.211914 -0.0637207 0.211914
0.229126 -0.103882 0.197143
0.197143 -0.103882 0.229126
-0.0637207 -0.211914 -0.211914
-0.103882 -0.197143 -0.229126
-0.103882 -0.229126 -0.197143
0.229126 -0.197143 0.103882
0.211914 -0.211914 0.0637207
0.197143 -0.229126 0.103882
0.211914 0.0637207 -0.211914
0.229126 0.103882 -0.197143
0.197143 0.103882 -0.229126
-0.211914 -0.211914 -0.0637207
-0.197143 -0.229126 -0.103882
-0.229126 -0.197143 -0.103882
-0.197143 0.103882 0.229126
-0.211914 0.0637207 0.211914
-0.229126 0.103882 0.197143
0.0637207 -0.211914 0.211914
0.103882 -0.197143 0.229126
0.103882 -0.229126 0.197143
-0.211914 0.211914 0.0637207
-0.197143 0.229126 0.103882
-0.229126 0.197143 0.103882
-0.197143 -0.103882 -0.229126
-0.211914 -0.0637207 -0.211914
-0.229126 -0.103882 -0.197143
0.103882 0.229126 -0.197143
0.0637207 0.211914 -0.211914
0.103882 0.197143 -0.229126
0.269532 0.0620119 0.0620119
0.240967 0.0693361 0.112549
0.240967 0.112549 0.0693361
0.0620119 0.0620119 0.269532
0.0693361 0.112549 0.240967
0.112549 0.0693361 0.240967
0.0620119 0.269532 0.0620119
0.112549 0.240967 0.0693361
0.0693361 0.240967 0.112549
0.269532 -0.0620119 -0.0620119
0.240967 -0.0693361 -0.112549
0.240967 -0.112549 -0.0693361
0.0620119 -0.0620119 -0.269532
0.0693361 -0.112549 -0.240967
0.112549 -0.0693361 -0.240967
0.0620119 -0.269532 -0.0620119
0.112549 -0.240967 -0.0693361
0.0693361 -0.240967 -0.112549
-0.0620119 -0.0620119 0.269532
-0.0693361 -0.112549 0.240967
-0.112549 -0.0693361 0.240967
-0.0620119 -0.269532 0.0620119
-0.112549 -0.240967 0.0693361
-0.0693361 -0.240967 0.112549
-0.269532 -0.0620119 0.0620119
-0.240967 -0.0693361 0.112549
-0.240967 -0.112549 0.0693361
-0.0620119 0.0620119 -0.269532
-0.0693361 0.112549 -0.240967
-0.112549 0.0693361 -0.240967
-0.0620119 0.269532 -0.0620119
-0.112549 0.240967 -0.0693361
-0.0693361 0.240967 -0.112549
-0.269532 0.0620119 -0.0620119
-0.240967 0.0693361 -0.112549
-0.240967 0.112549 -0.0693361
-0.184448 0.205932 0.205932
-0.165405 0.219849 0.198608
-0.165405 0.198608 0.219849
-0.0718994 0.268433 0.12854
-0.0317383 0.280274 0.0922852
-0.0244141 0.257569 0.140869
-0.0317383 0.0922852 0.280274
-0.0718994 0.12854 0.268433
-0.0244141 0.140869 0.257569
0.205932 0.205932 -0.184448
0.219849 0.198608 -0.165405
0.198608 0.219849 -0.165405
0.268433 0.12854 -0.0718994
0.280274 0.0922852 -0.0317383
0.257569 0.140869 -0.0244141
0.0922852 0.280274 -0.0317383
0.12854 0.268433 -0.0718994
0.140869 0.257569 -0.0244141
0.205932 -0.184448 0.205932
0.198608 -0.165405 0.219849
0.219849 -0.165405 0.198608
0.12854 -0.0718994 0.268433
0.0922852 -0.0317383 0.280274
0.140869 -0.0244141 0.257569
0.280274 -0.0317383 0.0922852
0.268433 -0.0718994 0.12854
0.257569 -0.0244141 0.140869
-0.184448 -0.205932 -0.205932
-0.165405 -0.219849 -0.198608
-0.165405 -0.198608 -0.219849
-0.0718994 -0.268433 -0.12854
-0.0317383 -0.280274 -0.0922852
-0.0244141 -0.257569 -0.140869
-0.0317383 -0.0922852 -0.280274
-0.0718994 -0.12854 -0.268433
-0.0244141 -0.140869 -0.257569
0.0922852 -0.280274 0.0317383
0.12854 -0.268433 0.0718994
0.140869 -0.257569 0.0244141
0.198608 -0.219849 0.165405
0.205932 -0.205932 0.184448
0.219849 -0.198608 0.165405
0.268433 -0.12854 0.0718994
0.280274 -0.0922852 0.0317383
0.257569 -0.140869 0.0244141
0.205932 0.184448 -0.205932
0.198608 0.165405 -0.219849
0.219849 0.165405 -0.198608
0.12854 0.0718994 -0.268433
0.0922852 0.0317383 -0.280274
0.140869 0.0244141 -0.257569
0.280274 0.0317383 -0.0922852
0.268433 0.0718994 -0.12854
0.257569 0.0244141 -0.140869
-0.205932 -0.205932 -0.184448
-0.219849 -0.198608 -0.165405
-0.198608 -0.219849 -0.165405
-0.268433 -0.12854 -0.0718994
-0.280274 -0.0922852 -0.0317383
-0.257569 -0.140869 -0.0244141
-0.0922852 -0.280274 -0.0317383
-0.12854 -0.268433 -0.0718994
-0.140869 -0.257569 -0.0244141
-0.280274 0.0317383 0.0922852
-0.268433 0.0718994 0.12854
-0.257569 0.0244141 0.140869
-0.219849 0.165405 0.198608
-0.205932 0.184448 0.205932
-0.198608 0.165405 0.219849
-0.12854 0.0718994 0.268433
-0.0922852 0.0317383 0.280274
-0.140869 0.0244141 0.257569
0.184448 -0.205932 0.205932
0.165405 -0.219849 0.198608
0.165405 -0.198608 0.219849
0.0718994 -0.268433 0.12854
0.0317383 -0.280274 0.0922852
0.0244141 -0.257569 0.140869
0.0317383 -0.0922852 0.280274
0.0718994 -0.12854 0.268433
0.0244141 -0.140869 0.257569
-0.205932 0.205932 0.184448
-0.219849 0.198608 0.165405
-0.198608 0.219849 0.165405
-0.268433 0.12854 0.0718994
-0.280274 0.0922852 0.0317383
-0.257569 0.140869 0.0244141
-0.0922852 0.280274 0.0317383
-0.12854 0.268433 0.0718994
-0.140869 0.257569 0.0244141
-0.280274 -0.0317383 -0.0922852
-0.268433 -0.0718994 -0.12854
-0.257569 -0.0244141 -0.140869
-0.219849 -0.165405 -0.198608
-0.205932 -0.184448 -0.205932
-0.198608 -0.165405 -0.219849
-0.12854 -0.0718994 -0.268433
-0.0922852 -0.0317383 -0.280274
-0.140869 -0.0244141 -0.257569
0.0317383 0.0922852 -0.280274
0.0718994 0.12854 -0.268433
0.0244141 0.140869 -0.257569
0.165405 0.198608 -0.219849
0.184448 0.205932 -0.205932
0.165405 0.219849 -0.198608
0.0718994 0.268433 -0.12854
0.0317383 0.280274 -0.0922852
0.0244141 0.257569 -0.140869
0.0732423 0.160401 0.203858
0.0732423 0.203858 0.160401
0.160401 0.203858 0.0732423
0.203858 0.160401 0.0732423
0.203858 0.0732423 0.160401
0.160401 0.0732423 0.203858
0.0732423 -0.160401 -0.203858
0.0732423 -0.203858 -0.160401
0.160401 -0.203858 -0.0732423
0.203858 -0.160401 -0.0732423
0.203858 -0.0732423 -0.160401
0.160401 -0.0732423 -0.203858
-0.160401 -0.203858 0.0732423
-0.203858 -0.160401 0.0732423
-0.203858 -0.0732423 0.160401
-0.160401 -0.0732423 0.203858
-0.0732423 -0.160401 0.203858
-0.0732423 -0.203858 0.160401
-0.160401 0.203858 -0.0732423
-0.203858 0.160401 -0.0732423
-0.203858 0.0732423 -0.160401
-0.160401 0.0732423 -0.203858
-0.0732423 0.160401 -0.203858
-0.0732423 0.203858 -0.160401
-0.0205078 0.225342 0.185791
-0.0205078 0.185791 0.225342
-0.108521 0.159302 0.253296
-0.140015 0.182983 0.23645
-0.140015 0.23645 0.182983
-0.108521 0.253296 0.159302
0.225342 0.185791 -0.0205078
0.185791 0.225342 -0.0205078
0.159302 0.253296 -0.108521
0.182983 0.23645 -0.140015
0.23645 0.182983 -0.140015
0.253296 0.159302 -0.108521
0.185791 -0.0205078 0.225342
0.225342 -0.0205078 0.185791
0.253296 -0.108521 0.159302
0.23645 -0.140015 0.182983
0.182983 -0.140015 0.23645
0.159302 -0.108521 0.253296
-0.0205078 -0.225342 -0.185791
-0.0205078 -0.185791 -0.225342
-0.108521 -0.159302 -0.253296
-0.140015 -0.182983 -0.23645
-0.140015 -0.23645 -0.182983
-0.108521 -0.253296 -0.159302
0.23645 -0.182983 0.140015
0.253296 -0.159302 0.108521
0.225342 -0.185791 0.0205078
0.185791 -0.225342 0.0205078
0.159302 -0.253296 0.108521
0.182983 -0.23645 0.140015
0.185791 0.0205078 -0.225342
0.225342 0.0205078 -0.185791
0.253296 0.108521 -0.159302
0.23645 0.140015 -0.182983
0.182983 0.140015 -0.23645
0.159302 0.108521 -0.253296
-0.225342 -0.185791 -0.0205078
-0.185791 -0.225342 -0.0205078
-0.159302 -0.253296 -0.108521
-0.182983 -0.23645 -0.140015
-0.23645 -0.182983 -0.140015
-0.253296 -0.159302 -0.108521
-0.182983 0.140015 0.23645
-0.159302 0.108521 0.253296
-0.185791 0.0205078 0.225342
-0.225342 0.0205078 0.185791
-0.253296 0.108521 0.159302
-0.23645 0.140015 0.182983
0.0205078 -0.225342 0.185791
0.0205078 -0.185791 0.225342
0.108521 -0.159302 0.253296
0.140015 -0.182983 0.23645
0.140015 -0.23645 0.182983
0.108521 -0.253296 0.159302
-0.225342 0.185791 0.0205078
-0.185791 0.225342 0.0205078
-0.159302 0.253296 0.108521
-0.182983 0.23645 0.140015
-0.23645 0.182983 0.140015
-0.253296 0.159302 0.108521
-0.182983 -0.140015 -0.23645
-0.159302 -0.108521 -0.253296
-0.185791 -0.0205078 -0.225342
-0.225342 -0.0205078 -0.185791
-0.253296 -0.108521 -0.159302
-0.23645 -0.140015 -0.182983
0.140015 0.23645 -0.182983
0.108521 0.253296 -0.159302
0.0205078 0.225342 -0.185791
0.0205078 0.185791 -0.225342
0.108521 0.159302 -0.253296
0.140015 0.182983 -0.23645
0.28711 0.0522462 0.010254
0.28711 0.010254 0.0522462
0.235596 0.0244141 0.1521
0.235596 0.1521 0.0244141
0.0522462 0.010254 0.28711
0.010254 0.0522462 0.28711
0.0244141 0.1521 0.235596
0.1521 0.0244141 0.235596
0.010254 0.28711 0.0522462
0.0522462 0.28711 0.010254
0.1521 0.235596 0.0244141
0.0244141 0.235596 0.1521
0.28711 -0.0522462 -0.010254
0.28711 -0.010254 -0.0522462
0.235596 -0.0244141 -0.1521
0.235596 -0.1521 -0.0244141
0.0522462 -0.010254 -0.28711
0.010254 -0.0522462 -0.28711
0.0244141 -0.1521 -0.235596
0.1521 -0.0244141 -0.235596
0.010254 -0.28711 -0.0522462
0.0522462 -0.28711 -0.010254
0.1521 -0.235596 -0.0244141
0.0244141 -0.235596 -0.1521
-0.0522462 -0.010254 0.28711
-0.010254 -0.0522462 0.28711
-0.0244141 -0.1521 0.235596
-0.1521 -0.0244141 0.235596
-0.010254 -0.28711 0.0522462
-0.0522462 -0.28711 0.010254
-0.1521 -0.235596 0.0244141
-0.0244141 -0.235596 0.1521
-0.28711 -0.0522462 0.010254
-0.28711 -0.010254 0.0522462
-0.235596 -0.0244141 0.1521
-0.235596 -0.1521 0.0244141
-0.0522462 0.010254 -0.28711
-0.010254 0.0522462 -0.28711
-0.0244141 0.1521 -0.235596
-0.1521 0.0244141 -0.235596
-0.010254 0.28711 -0.0522462
-0.0522462 0.28711 -0.010254
-0.1521 0.235596 -0.0244141
-0.0244141 0.235596 -0.1521
-0.28711 0.0522462 -0.010254
-0.28711 0.010254 -0.0522462
-0.235596 0.0244141 -0.1521
-0.235596 0.1521 -0.0244141
-0.197388 0.197388 0.2052
-0.197388 0.2052 0.197388
-0.171509 0.233276 0.171509
-0.171509 0.171509 0.233276
-0.117065 0.267212 0.117065
-0.041504 0.291016 0.041504
-0.041504 0.041504 0.291016
-0.117065 0.117065 0.267212
0.197388 0.2052 -0.197388
0.2052 0.197388 -0.197388
0.233276 0.171509 -0.171509
0.171509 0.233276 -0.171509
0.267212 0.117065 -0.117065
0.291016 0.041504 -0.041504
0.041504 0.291016 -0.041504
0.117065 0.267212 -0.117065
0.2052 -0.197388 0.197388
0.197388 -0.197388 0.2052
0.171509 -0.171509 0.233276
0.233276 -0.171509 0.171509
0.117065 -0.117065 0.267212
0.041504 -0.041504 0.291016
0.291016 -0.041504 0.041504
0.267212 -0.117065 0.117065
-0.197388 -0.197388 -0.2052
-0.197388 -0.2052 -0.197388
-0.171509 -0.233276 -0.171509
-0.171509 -0.171509 -0.233276
-0.117065 -0.267212 -0.117065
-0.041504 -0.291016 -0.041504
-0.041504 -0.041504 -0.291016
-0.117065 -0.117065 -0.267212
0.041504 -0.291016 0.041504
0.117065 -0.267212 0.117065
0.171509 -0.233276 0.171509
0.197388 -0.2052 0.197388
0.197388 0.197388 -0.2052
0.171509 0.171509 -0.233276
0.117065 0.117065 -0.267212
0.041504 0.041504 -0.291016
-0.2052 -0.197388 -0.197388
-0.233276 -0.171509 -0.171509
-0.267212 -0.117065 -0.117065
-0.291016 -0.041504 -0.041504
-0.291016 0.041504 0.041504
-0.267212 0.117065 0.117065
-0.233276 0.171509 0.171509
-0.2052 0.197388 0.197388
3 131 132 130
3 134 135 133
3 137 138 136
3 140 141 139
3 143 144 142
3 146 147 145
3 149 150 148
3 152 153 151
3 155 156 154
3 158 159 157
3 161 162 160
3 164 165 163
3 167 168 166
3 170 171 169
3 173 174 172
3 176 177 175
3 179 180 178
3 182 183 181
3 185 186 184
3 188 189 187
3 191 192 190
3 194 195 193
3 197 198 196
3 200 201 199
3 203 204 202
3 206 207 205
3 209 210 208
3 212 213 211
3 215 216 214
3 218 219 217
3 221 222 220
3 224 225 223
3 227 228 226
3 230 231 229
3 233 234 232
3 236 237 235
3 239 240 238
3 242 243 241
3 245 246 244
3 248 249 247
3 251 252 250
3 254 255 253
3 257 258 256
3 260 261 259
3 263 264 262
3 266 267 265
3 269 270 268
3 272 273 271
3 275 276 274
3 278 279 277
3 281 282 280
3 284 285 283
3 287 288 286
3 290 291 289
3 293 294 292
3 296 297 295
3 299 300 298
3 302 303 301
3 305 306 304
3 308 309 307
3 311 312 310
3 314 315 313
3 317 318 316
3 320 321 319
3 322 323 130
3 324 325 131
3 326 327 132
3 328 329 133
3 330 331 134
3 332 333 135
3 334 335 136
3 336 337 137
3 338 339 138
3 340 341 139
3 342 343 140
3 344 345 141
3 346 347 142
3 348 349 143
3 350 351 144
3 352 353 145
3 354 355 146
3 356 357 147
3 358 359 148
3 360 361 149
3 362 363 150
3 364 365 151
3 366 367 152
3 368 369 153
3 370 371 154
3 372 373 155
3 374 375 156
3 376 377 157
3 378 379 158
3 380 381 159
3 382 383 160
3 384 385 161
3 386 387 162
3 388 389 163
3 390 391 164
3 392 393 165
3 394 395 166
3 396 397 167
3 398 399 168
3 400 401 169
3 402 403 170
3 404 405 171
3 406 407 172
3 408 409 173
3 410 411 174
3 412 413 175
3 414 415 176
3 416 417 177
3 418 419 178
3 179 420 326
3 325 421 180
3 422 423 181
3 182 424 322
3 327 425 183
3 426 427 184
3 185 428 324
3 323 429 186
3 430 431 187
3 188 432 332
3 331 433 189
3 434 435 190
3 191 436 328
3 333 437 192
3 438 439 193
3 194 440 330
3 329 441 195
3 442 443 196
3 197 444 338
3 337 445 198
3 446 447 199
3 200 448 334
3 339 449 201
3 450 451 202
3 203 452 336
3 335 453 204
3 454 455 205
3 206 456 344
3 343 457 207
3 458 459 208
3 209 460 340
3 345 461 210
3 462 463 211
3 212 464 342
3 341 465 213
3 466 467 214
3 215 468 350
3 349 469 216
3 351 470 217
3 218 471 426
3 219 429 346
3 423 472 220
3 221 473 348
3 347 424 222
3 474 475 223
3 224 476 356
3 355 477 225
3 357 478 226
3 227 479 418
3 228 421 352
3 427 480 229
3 230 481 354
3 353 428 231
3 482 483 232
3 233 484 362
3 361 485 234
3 363 486 235
3 236 487 422
3 237 425 358
3 419 488 238
3 239 489 360
3 359 420 240
3 490 491 241
3 242 492 368
3 367 493 243
3 369 494 244
3 245 495 438
3 246 441 364
3 435 496 247
3 248 497 366
3 365 436 249
3 439 498 250
3 251 499 374
3 373 440 252
3 375 500 253
3 254 501 482
3 255 485 370
3 371 489 256
3 257 488 430
3 258 433 372
3 475 502 259
3 260 503 380
3 379 476 261
3 381 504 262
3 263 505 434
3 264 437 376
3 431 479 265
3 266 478 378
3 377 432 267
3 491 506 268
3 269 507 386
3 385 492 270
3 387 508 271
3 272 509 450
3 273 453 382
3 447 495 274
3 275 494 384
3 383 448 276
3 451 510 277
3 278 511 392
3 391 452 279
3 393 512 280
3 281 513 466
3 282 469 388
3 389 473 283
3 284 472 442
3 285 445 390
3 483 501 286
3 287 500 398
3 397 484 288
3 399 499 289
3 290 498 446
3 291 449 394
3 443 487 292
3 293 486 396
3 395 444 294
3 467 513 295
3 296 512 404
3 403 468 297
3 405 511 298
3 299 510 462
3 300 465 400
3 459 471 301
3 302 470 402
3 401 460 303
3 463 509 304
3 305 508 410
3 409 464 306
3 411 507 307
3 308 506 490
3 309 493 406
3 407 497 310
3 311 496 454
3 312 457 408
3 455 505 313
3 314 504 416
3 415 456 315
3 417 503 316
3 317 502 474
3 318 477 412
3 413 481 319
3 320 480 458
3 321 461 414
3 132 131 34
3 130 132 35
3 131 130 36
3 135 134 37
3 133 135 38
3 134 133 39
3 138 137 40
3 136 138 41
3 137 136 42
3 141 140 43
3 139 141 44
3 140 139 45
3 144 143 46
3 142 144 47
3 143 142 48
3 147 146 49
3 145 147 50
3 146 145 51
3 150 149 52
3 148 150 53
3 149 148 54
3 153 152 55
3 151 153 56
3 152 151 57
3 156 155 58
3 154 156 59
3 155 154 60
3 159 158 61
3 157 159 62
3 158 157 63
3 162 161 64
3 160 162 65
3 161 160 66
3 165 164 67
3 163 165 68
3 164 163 69
3 168 167 70
3 166 168 71
3 167 166 72
3 171 170 73
3 169 171 74
3 170 169 75
3 174 173 76
3 172 174 77
3 173 172 78
3 177 176 79
3 175 177 80
3 176 175 81
3 180 179 34
3 178 180 82
3 179 178 83
3 183 182 35
3 181 183 84
3 182 181 85
3 186 185 36
3 184 186 86
3 185 184 87
3 189 188 37
3 187 189 88
3 188 187 89
3 192 191 38
3 190 192 90
3 191 190 91
3 195 194 39
3 193 195 92
3 194 193 93
3 198 197 40
3 196 198 94
3 197 196 95
3 201 200 41
3 199 201 96
3 200 199 97
3 204 203 42
3 202 204 98
3 203 202 99
3 207 206 43
3 205 207 100
3 206 205 101
3 210 209 44
3 208 210 102
3 209 208 103
3 213 212 45
3 211 213 104
3 212 211 105
3 216 215 46
3 214 216 106
3 215 214 107
3 219 218 86
3 217 219 47
3 218 217 108
3 222 221 48
3 220 222 85
3 221 220 109
3 225 224 49
3 223 225 110
3 224 223 111
3 228 227 82
3 226 228 50
3 227 226 112
3 231 230 51
3 229 231 87
3 230 229 113
3 234 233 52
3 232 234 114
3 233 232 115
3 237 236 84
3 235 237 53
3 236 235 116
3 240 239 54
3 238 240 83
3 239 238 117
3 243 242 55
3 241 243 118
3 242 241 119
3 246 245 92
3 244 246 56
3 245 244 120
3 249 248 57
3 247 249 91
3 248 247 121
3 252 251 58
3 250 252 93
3 251 250 122
3 255 254 114
3 253 255 59
3 254 253 123
3 258 257 88
3 256 258 60
3 257 256 117
3 261 260 61
3 259 261 111
3 260 259 124
3 264 263 90
3 262 264 62
3 263 262 125
3 267 266 63
3 265 267 89
3 266 265 112
3 270 269 64
3 268 270 119
3 269 268 126
3 273 272 98
3 271 273 65
3 272 271 127
3 276 275 66
3 274 276 97
3 275 274 120
3 279 278 67
3 277 279 99
3 278 277 128
3 282 281 106
3 280 282 68
3 281 280 129
3 285 284 94
3 283 285 69
3 284 283 109
3 288 287 70
3 286 288 115
3 287 286 123
3 291 290 96
3 289 291 71
3 290 289 122
3 294 293 72
3 292 294 95
3 293 292 116
3 297 296 73
3 295 297 107
3 296 295 129
3 300 299 104
3 298 300 74
3 299 298 128
3 303 302 75
3 301 303 103
3 302 301 108
3 306 305 76
3 304 306 105
3 305 304 127
3 309 308 118
3 307 309 77
3 308 307 126
3 312 311 100
3 310 312 78
3 311 310 121
3 315 314 79
3 313 315 101
3 314 313 125
3 318 317 110
3 316 318 80
3 317 316 124
3 321 320 102
3 319 321 81
3 320 319 113
3 323 322 10
3 130 323 36
3 322 130 35
3 325 324 11
3 131 325 34
3 324 131 36
3 327 326 12
3 132 327 35
3 326 132 34
3 329 328 13
3 133 329 39
3 328 133 38
3 331 330 14
3 134 331 37
3 330 134 39
3 333 332 15
3 135 333 38
3 332 135 37
3 335 334 16
3 136 335 42
3 334 136 41
3 337 336 17
3 137 337 40
3 336 137 42
3 339 338 18
3 138 339 41
3 338 138 40
3 341 340 19
3 139 341 45
3 340 139 44
3 343 342 20
3 140 343 43
3 342 140 45
3 345 344 21
3 141 345 44
3 344 141 43
3 347 346 10
3 142 347 48
3 346 142 47
3 349 348 22
3 143 349 46
3 348 143 48
3 351 350 23
3 144 351 47
3 350 144 46
3 353 352 11
3 145 353 51
3 352 145 50
3 355 354 24
3 146 355 49
3 354 146 51
3 357 356 25
3 147 357 50
3 356 147 49
3 359 358 12
3 148 359 54
3 358 148 53
3 361 360 26
3 149 361 52
3 360 149 54
3 363 362 27
3 150 363 53
3 362 150 52
3 365 364 13
3 151 365 57
3 364 151 56
3 367 366 28
3 152 367 55
3 366 152 57
3 369 368 29
3 153 369 56
3 368 153 55
3 371 370 26
3 154 371 60
3 370 154 59
3 373 372 14
3 155 373 58
3 372 155 60
3 375 374 30
3 156 375 59
3 374 156 58
3 377 376 15
3 157 377 63
3 376 157 62
3 379 378 25
3 158 379 61
3 378 158 63
3 381 380 31
3 159 381 62
3 380 159 61
3 383 382 16
3 160 383 66
3 382 160 65
3 385 384 29
3 161 385 64
3 384 161 66
3 387 386 32
3 162 387 65
3 386 162 64
3 389 388 22
3 163 389 69
3 388 163 68
3 391 390 17
3 164 391 67
3 390 164 69
3 393 392 33
3 165 393 68
3 392 165 67
3 395 394 18
3 166 395 72
3 394 166 71
3 397 396 27
3 167 397 70
3 396 167 72
3 399 398 30
3 168 399 71
3 398 168 70
3 401 400 19
3 169 401 75
3 400 169 74
3 403 402 23
3 170 403 73
3 402 170 75
3 405 404 33
3 171 405 74
3 404 171 73
3 407 406 28
3 172 407 78
3 406 172 77
3 409 408 20
3 173 409 76
3 408 173 78
3 411 410 32
3 174 411 77
3 410 174 76
3 413 412 24
3 175 413 81
3 412 175 80
3 415 414 21
3 176 415 79
3 414 176 81
3 417 416 31
3 177 417 80
3 416 177 79
3 419 418 4
3 178 419 83
3 418 178 82
3 420 179 83
3 326 420 12
3 179 326 34
3 421 325 11
3 180 421 82
3 325 180 34
3 423 422 5
3 181 423 85
3 422 181 84
3 424 182 85
3 322 424 10
3 182 322 35
3 425 327 12
3 183 425 84
3 327 183 35
3 427 426 6
3 184 427 87
3 426 184 86
3 428 185 87
3 324 428 11
3 185 324 36
3 429 323 10
3 186 429 86
3 323 186 36
3 431 430 4
3 187 431 89
3 430 187 88
3 432 188 89
3 332 432 15
3 188 332 37
3 433 331 14
3 189 433 88
3 331 189 37
3 435 434 7
3 190 435 91
3 434 190 90
3 436 191 91
3 328 436 13
3 191 328 38
3 437 333 15
3 192 437 90
3 333 192 38
3 439 438 8
3 193 439 93
3 438 193 92
3 440 194 93
3 330 440 14
3 194 330 39
3 441 329 13
3 195 441 92
3 329 195 39
3 443 442 5
3 196 443 95
3 442 196 94
3 444 197 95
3 338 444 18
3 197 338 40
3 445 337 17
3 198 445 94
3 337 198 40
3 447 446 8
3 199 447 97
3 446 199 96
3 448 200 97
3 334 448 16
3 200 334 41
3 449 339 18
3 201 449 96
3 339 201 41
3 451 450 9
3 202 451 99
3 450 202 98
3 452 203 99
3 336 452 17
3 203 336 42
3 453 335 16
3 204 453 98
3 335 204 42
3 455 454 7
3 205 455 101
3 454 205 100
3 456 206 101
3 344 456 21
3 206 344 43
3 457 343 20
3 207 457 100
3 343 207 43
3 459 458 6
3 208 459 103
3 458 208 102
3 460 209 103
3 340 460 19
3 209 340 44
3 461 345 21
3 210 461 102
3 345 210 44
3 463 462 9
3 211 463 105
3 462 211 104
3 464 212 105
3 342 464 20
3 212 342 45
3 465 341 19
3 213 465 104
3 341 213 45
3 467 466 3
3 214 467 107
3 466 214 106
3 468 215 107
3 350 468 23
3 215 350 46
3 469 349 22
3 216 469 106
3 349 216 46
3 470 351 23
3 217 470 108
3 351 217 47
3 471 218 108
3 426 471 6
3 218 426 86
3 429 219 86
3 346 429 10
3 219 346 47
3 472 423 5
3 220 472 109
3 423 220 85
3 473 221 109
3 348 473 22
3 221 348 48
3 424 347 10
3 222 424 85
3 347 222 48
3 475 474 1
3 223 475 111
3 474 223 110
3 476 224 111
3 356 476 25
3 224 356 49
3 477 355 24
3 225 477 110
3 355 225 49
3 478 357 25
3 226 478 112
3 357 226 50
3 479 227 112
3 418 479 4
3 227 418 82
3 421 228 82
3 352 421 11
3 228 352 50
3 480 427 6
3 229 480 113
3 427 229 87
3 481 230 113
3 354 481 24
3 230 354 51
3 428 353 11
3 231 428 87
3 353 231 51
3 483 482 2
3 232 483 115
3 482 232 114
3 484 233 115
3 362 484 27
3 233 362 52
3 485 361 26
3 234 485 114
3 361 234 52
3 486 363 27
3 235 486 116
3 363 235 53
3 487 236 116
3 422 487 5
3 236 422 84
3 425 237 84
3 358 425 12
3 237 358 53
3 488 419 4
3 238 488 117
3 419 238 83
3 489 239 117
3 360 489 26
3 239 360 54
3 420 359 12
3 240 420 83
3 359 240 54
3 491 490 0
3 241 491 119
3 490 241 118
3 492 242 119
3 368 492 29
3 242 368 55
3 493 367 28
3 243 493 118
3 367 243 55
3 494 369 29
3 244 494 120
3 369 244 56
3 495 245 120
3 438 495 8
3 245 438 92
3 441 246 92
3 364 441 13
3 246 364 56
3 496 435 7
3 247 496 121
3 435 247 91
3 497 248 121
3 366 497 28
3 248 366 57
3 436 365 13
3 249 436 91
3 365 249 57
3 498 439 8
3 250 498 122
3 439 250 93
3 499 251 122
3 374 499 30
3 251 374 58
3 440 373 14
3 252 440 93
3 373 252 58
3 500 375 30
3 253 500 123
3 375 253 59
3 501 254 123
3 482 501 2
3 254 482 114
3 485 255 114
3 370 485 26
3 255 370 59
3 489 371 26
3 256 489 117
3 371 256 60
3 488 257 117
3 430 488 4
3 257 430 88
3 433 258 88
3 372 433 14
3 258 372 60
3 502 475 1
3 259 502 124
3 475 259 111
3 503 260 124
3 380 503 31
3 260 380 61
3 476 379 25
3 261 476 111
3 379 261 61
3 504 381 31
3 262 504 125
3 381 262 62
3 505 263 125
3 434 505 7
3 263 434 90
3 437 264 90
3 376 437 15
3 264 376 62
3 479 431 4
3 265 479 112
3 431 265 89
3 478 266 112
3 378 478 25
3 266 378 63
3 432 377 15
3 267 432 89
3 377 267 63
3 506 491 0
3 268 506 126
3 491 268 119
3 507 269 126
3 386 507 32
3 269 386 64
3 492 385 29
3 270 492 119
3 385 270 64
3 508 387 32
3 271 508 127
3 387 271 65
3 509 272 127
3 450 509 9
3 272 450 98
3 453 273 98
3 382 453 16
3 273 382 65
3 495 447 8
3 274 495 120
3 447 274 97
3 494 275 120
3 384 494 29
3 275 384 66
3 448 383 16
3 276 448 97
3 383 276 66
3 510 451 9
3 277 510 128
3 451 277 99
3 511 278 128
3 392 511 33
3 278 392 67
3 452 391 17
3 279 452 99
3 391 279 67
3 512 393 33
3 280 512 129
3 393 280 68
3 513 281 129
3 466 513 3
3 281 466 106
3 469 282 106
3 388 469 22
3 282 388 68
3 473 389 22
3 283 473 109
3 389 283 69
3 472 284 109
3 442 472 5
3 284 442 94
3 445 285 94
3 390 445 17
3 285 390 69
3 501 483 2
3 286 501 123
3 483 286 115
3 500 287 123
3 398 500 30
3 287 398 70
3 484 397 27
3 288 484 115
3 397 288 70
3 499 399 30
3 289 499 122
3 399 289 71
3 498 290 122
3 446 498 8
3 290 446 96
3 449 291 96
3 394 449 18
3 291 394 71
3 487 443 5
3 292 487 116
3 443 292 95
3 486 293 116
3 396 486 27
3 293 396 72
3 444 395 18
3 294 444 95
3 395 294 72
3 513 467 3
3 295 513 129
3 467 295 107
3 512 296 129
3 404 512 33
3 296 404 73
3 468 403 23
3 297 468 107
3 403 297 73
3 511 405 33
3 298 511 128
3 405 298 74
3 510 299 128
3 462 510 9
3 299 462 104
3 465 300 104
3 400 465 19
3 300 400 74
3 471 459 6
3 301 471 108
3 459 301 103
3 470 302 108
3 402 470 23
3 302 402 75
3 460 401 19
3 303 460 103
3 401 303 75
3 509 463 9
3 304 509 127
3 463 304 105
3 508 305 127
3 410 508 32
3 305 410 76
3 464 409 20
3 306 464 105
3 409 306 76
3 507 411 32
3 307 507 126
3 411 307 77
3 506 308 126
3 490 506 0
3 308 490 118
3 493 309 118
3 406 493 28
3 309 406 77
3 497 407 28
3 310 497 121
3 407 310 78
3 496 311 121
3 454 496 7
3 311 454 100
3 457 312 100
3 408 457 20
3 312 408 78
3 505 455 7
3 313 505 125
3 455 313 101
3 504 314 125
3 416 504 31
3 314 416 79
3 456 415 21
3 315 456 101
3 415 315 79
3 503 417 31
3 316 503 124
3 417 316 80
3 502 317 124
3 474 502 1
3 317 474 110
3 477 318 110
3 412 477 24
3 318 412 80
3 481 413 24
3 319 481 113
3 413 319 81
3 480 320 113
3 458 480 6
3 320 458 102
3 461 321 102
3 414 461 21
3 321 414 81
