ply
format ascii 1.0
element vertex 434
property float x
property float y
property float z
element face 432
property list uchar int vertex_indices
end_header
-0.5685 -0.503134 0.52089
0.885986 0.338437 9.11602e-06
0.844397 -0.383022 -6.27995e-05
-0.885992 0.338407 1.08022e-05
-0.844457 -0.382981 8.66651e-07
0 0.86779 0.357868
3.14962e-05 0.867782 -0.357878
0.332911 -0.00360117 -0.877248
-0.352773 0.0418684 -0.855787
0.00806333 -0.865645 -0.345698
3.04105e-10 -0.867754 0.357833
0.345661 0.00803273 0.86568
-0.345661 0.00803273 0.86568
0.531724 0.531889 -0.531441
0.531672 0.531755 0.531519
-0.531606 0.531574 -0.531639
-0.531672 0.531755 0.531519
0.568542 -0.502996 -0.520963
0.5685 -0.503134 0.520889
-0.540609 -0.510184 -0.551927
-0.315792 -0.69222 0.45872
-0.458902 -0.285248 0.691184
-0.169093 -0.443302 0.643688
-0.627851 0.15893 0.468917
-0.732244 -0.115585 0.299955
-0.717879 -0.442847 0.27397
-0.887069 -0.0508009 0.000101618
-0.444123 -0.643358 0.168518
0.442575 0.64445 -0.168386
0.316598 0.691697 -0.458973
0.69124 0.459762 -0.316407
0.442575 0.64445 0.168386
-8.27842e-10 0.866727 4.13921e-10
0.691222 0.45969 0.316447
0.316566 0.691632 0.459016
0.627851 0.15893 0.468917
0.459657 0.316587 0.691162
0.732244 -0.115585 0.299955
0.458902 -0.285248 0.691184
0.887003 -0.0508525 0
0.717879 -0.442847 0.27397
0.732272 -0.115509 -0.299931
0.717879 -0.442809 -0.27405
0.627975 0.159611 -0.468574
0.459273 -0.284553 -0.691183
0.459887 0.317177 -0.690814
0.444123 -0.643358 0.168518
0.315792 -0.69222 0.45872
0.444162 -0.643141 -0.16936
8.32693e-11 -0.866457 -0.000722049
0.315787 -0.691717 -0.459363
-0.442575 0.64445 0.168386
-0.316566 0.691632 0.459016
-0.691222 0.45969 0.316447
-0.442575 0.64445 -0.168386
-0.691199 0.459593 -0.316511
-0.316526 0.691543 -0.459083
-0.627783 0.158074 -0.469381
-0.45937 0.315787 -0.691701
-0.732694 -0.115276 -0.299024
-0.443091 -0.243243 -0.7171
-0.71861 -0.442339 -0.273272
-0.459657 0.316587 0.691162
-0.444265 -0.643107 -0.169285
-0.284303 -0.691557 -0.458752
-0.169186 0.443199 0.643704
0.169186 0.443199 0.643704
8.27842e-10 -9.72193e-10 0.866561
0.169577 0.443669 -0.643353
-0.168739 0.442499 -0.644283
-0.0254381 0.0158647 -0.876717
0.159442 -0.468592 -0.628033
-0.114374 -0.300249 -0.732249
0.169093 -0.443302 0.643688
-0.0880658 -0.22928 0.776433
0.0880658 -0.22928 0.776433
0 -0.45998 0.633049
0.259769 -0.21482 0.791042
0.177841 0 0.877098
-0.177841 0 0.877098
-0.259769 -0.21482 0.791042
-0.0818756 -0.680521 0.502913
0.0818756 -0.680521 0.502913
0.317094 -0.371837 0.688888
0.37132 -0.515108 0.60102
0.228818 -0.602682 0.54578
0.458399 -0.612516 0.51684
0.516721 -0.430468 0.611793
0.406884 -0.142408 0.789557
0.170626 -0.790104 0.406616
-0.229429 -0.142813 -0.83134
-0.284137 -0.285291 -0.742473
-0.053035 -0.142038 -0.830809
-0.347417 -0.444413 -0.649171
-0.50245 -0.392334 -0.635036
-0.392436 -0.104606 -0.813213
-0.201009 0.0141895 -0.88635
0.154733 0.0145176 -0.886109
0.118409 -0.156222 -0.827088
-0.196714 -0.514042 -0.600255
-0.054119 -0.601715 -0.545998
0.0342315 -0.370554 -0.688352
0.0730133 -0.703658 -0.488796
-0.141947 -0.78969 -0.406817
-0.429811 -0.61205 -0.516637
0.251024 -0.237821 -0.776596
0.229037 -0.601838 -0.546441
0.371531 -0.514443 -0.601382
0.317498 -0.370912 -0.689262
0.516914 -0.430095 -0.611826
0.458407 -0.612224 -0.517159
0.170642 -0.789744 -0.407089
0.407136 -0.141899 -0.789556
-0.37197 0.513692 -0.601501
-0.317183 0.370401 -0.689486
-0.229141 0.601738 -0.546339
-0.259513 0.21421 -0.79142
-0.40703 0.170407 -0.789915
-0.517195 0.458534 -0.612104
-0.458888 0.612024 -0.517069
-0.170905 0.789783 -0.406836
-0.0817295 0.680119 -0.503236
-0.0873865 0.228815 -0.776735
0.0887191 0.229353 -0.776301
0.000472789 0.459852 -0.633168
0.260126 0.215024 -0.790789
0.0821925 0.680656 -0.502802
0.317835 0.37178 -0.688497
0.372313 0.514534 -0.600946
0.22958 0.602552 -0.545707
0.458942 0.612165 -0.51698
0.517461 0.45924 -0.611658
0.407396 0.171411 -0.789264
0.170983 0.789918 -0.406727
0.37216 0.514177 0.601164
0.31754 0.371195 0.688886
0.22938 0.602207 0.545955
0.259839 0.214706 0.791034
0.407232 0.170984 0.789518
0.517343 0.458941 0.611833
0.458918 0.612105 0.517015
0.170947 0.789861 0.40677
0.081974 0.680448 0.502949
-0.170626 -0.790104 0.406616
-0.228818 -0.602682 0.54578
-0.516721 -0.430468 0.611793
-0.37132 -0.515108 0.60102
-0.458399 -0.612516 0.51684
-0.317094 -0.371837 0.688888
-0.406884 -0.142408 0.789557
-0.776468 0.250655 0.237999
-0.688222 0.0331703 0.370646
-0.827044 0.117772 0.156139
-0.545976 -0.0550385 0.601692
-0.488733 0.0727506 0.703787
-0.649241 -0.348178 0.444085
-0.600305 -0.197983 0.513736
-0.830916 -0.0531306 0.141626
-0.89528 0.131444 0.000103332
-0.635478 -0.50263 0.420504
-0.742851 -0.284519 0.284295
-0.895746 -0.224001 7.95815e-05
-0.831789 -0.228804 0.141793
-0.813729 -0.392044 0.132713
-0.602644 -0.545859 0.228933
-0.681088 -0.502668 0.0816323
-0.513813 -0.601695 0.371567
-0.215139 -0.790934 0.25934
-0.37125 -0.689239 0.316705
0.680015 0.503461 -0.0815946
0.601677 0.546693 -0.228826
0.789568 0.407324 -0.170802
0.370845 0.68953 -0.316742
0.214383 0.791447 -0.259304
0.611925 0.517441 -0.458799
0.513923 0.60177 -0.371723
0.680015 0.50346 0.0815946
0.459327 0.633793 0
0 0.877247 0.177653
0.228887 0.776879 0.0876902
0.214383 0.791447 0.259304
0.228887 0.776879 -0.0876902
0 0.877247 -0.177653
0.789558 0.407253 0.170839
0.601677 0.546693 0.228826
0.513923 0.60177 0.371723
0.611902 0.517381 0.458834
0.370845 0.68953 0.316742
0.776468 0.250655 0.237999
0.689171 0.317488 0.37085
0.5465 0.229312 0.601696
0.488733 0.0727506 0.703787
0.601533 0.372132 0.513909
0.827044 0.117772 0.156139
0.688222 0.0331703 0.370646
0.600305 -0.197983 0.513736
0.649241 -0.348178 0.444085
0.545976 -0.0550385 0.601692
0.895235 0.131402 0
0.830916 -0.0531306 0.141626
0.813729 -0.392044 0.132713
0.831789 -0.228804 0.141793
0.895672 -0.224052 0
0.742851 -0.284519 0.284295
0.635478 -0.50263 0.420504
0.827055 0.117843 -0.156102
0.830916 -0.0531306 -0.141626
0.635472 -0.502585 -0.420569
0.742851 -0.284519 -0.284295
0.649281 -0.348112 -0.444079
0.831789 -0.228804 -0.141793
0.813734 -0.392021 -0.132792
0.776519 0.251008 -0.237815
0.688313 0.0335889 -0.370455
0.546227 -0.0543572 -0.601476
0.488847 0.0732291 -0.703561
0.600515 -0.197584 -0.513668
0.689246 0.3179 -0.37063
0.601661 0.372502 -0.513697
0.546669 0.229965 -0.601336
0.681088 -0.502668 0.0816323
0.602644 -0.545859 0.228933
0.37125 -0.689239 0.316705
0.215139 -0.790934 0.25934
0.513813 -0.601694 0.371567
0.681109 -0.502573 -0.0821033
0.461062 -0.632501 -0.000465746
0 -0.876974 -0.178235
0.229939 -0.776066 -0.0885656
0.215159 -0.79077 -0.259945
0.229918 -0.77616 0.0873621
0 -0.877021 0.177345
0.602664 -0.545695 -0.229391
0.513787 -0.601445 -0.371971
0.371245 -0.688894 -0.317423
-0.680015 0.503461 0.0815946
-0.601677 0.546693 0.228826
-0.789558 0.407253 0.170839
-0.170947 0.789861 0.40677
-0.370845 0.68953 0.316742
-0.214383 0.791447 0.259304
-0.611902 0.517381 0.458834
-0.513923 0.60177 0.371723
-0.458918 0.612105 0.517015
-0.680015 0.50346 -0.0815946
-0.459327 0.633793 0
-0.228887 0.776879 -0.0876902
-0.214383 0.791447 -0.259304
-0.228887 0.776879 0.0876902
-0.789546 0.40716 -0.170899
-0.601677 0.546693 -0.228826
-0.513923 0.60177 -0.371723
-0.611872 0.5173 -0.458889
-0.370845 0.68953 -0.316742
-0.776454 0.250235 -0.238194
-0.689082 0.316944 -0.371202
-0.546293 0.228443 -0.602265
-0.488691 0.0721482 -0.704094
-0.601372 0.371632 -0.51424
-0.827257 0.11789 -0.155682
-0.688434 0.0328598 -0.370382
-0.600751 -0.198157 -0.513055
-0.649586 -0.347975 -0.443444
-0.546195 -0.055751 -0.601663
-0.831215 -0.0528693 -0.14103
-0.814106 -0.391767 -0.132394
-0.832206 -0.228508 -0.141291
-0.743447 -0.284054 -0.28338
-0.635999 -0.502278 -0.420013
-0.689171 0.317488 0.37085
-0.517343 0.458941 0.611833
-0.601533 0.372132 0.513909
-0.5465 0.229312 0.601696
-0.407232 0.170984 0.789518
-0.681183 -0.502522 -0.0820237
-0.603147 -0.54543 -0.228939
-0.371874 -0.68879 -0.317072
-0.21527 -0.790759 -0.25989
-0.514713 -0.601137 -0.371302
-0.461062 -0.632501 -0.000465746
-0.229918 -0.77616 0.0873621
-0.229939 -0.776066 -0.0885656
-0.081974 0.680448 0.502949
-0.22938 0.602207 0.545955
-0.31754 0.371195 0.688886
-0.259839 0.214706 0.791034
-0.37216 0.514177 0.601164
0 0.45998 0.633049
0.0880658 0.229279 0.776433
-0.0880658 0.229279 0.776433
0 -0.305706 0.727449
0.177271 -0.152853 0.828114
-0.177271 -0.152853 0.828114
0 -0.617097 0.540392
0.305231 -0.495879 0.610906
0.43935 -0.535476 0.592631
0.329992 -0.247867 0.769704
0.15251 -0.712255 0.482259
-0.188541 -0.189829 -0.800296
-0.381339 -0.382172 -0.686736
-0.271499 -0.0953555 -0.864809
0.0833058 -0.0945812 -0.864278
-0.0720813 -0.494673 -0.610513
-0.0360987 -0.71159 -0.482575
-0.323031 -0.534711 -0.591964
0.141457 -0.246886 -0.769267
0.305534 -0.494994 -0.611414
0.439485 -0.535032 -0.592866
0.152654 -0.711633 -0.482793
0.33032 -0.247164 -0.769951
-0.305617 0.494499 -0.611502
-0.329984 0.246776 -0.770153
-0.439903 0.534405 -0.592963
-0.152737 0.711657 -0.482669
0.000656505 0.305517 -0.727554
0.177761 0.152974 -0.827955
-0.176756 0.152436 -0.828389
0.000308663 0.617015 -0.540485
0.306138 0.495602 -0.610711
0.440116 0.534971 -0.592606
0.330506 0.247879 -0.769363
0.153045 0.712195 -0.482235
0.305903 0.495134 0.611022
0.33027 0.247411 0.769673
0.440022 0.534731 0.592746
0.152904 0.711966 0.482405
-0.15251 -0.712255 0.482259
-0.43935 -0.535476 0.592631
-0.329992 -0.247867 0.769704
-0.305231 -0.495879 0.610906
-0.769146 0.140692 0.246999
-0.482563 -0.0367227 0.711588
-0.592024 -0.324005 0.534427
-0.610475 -0.0732633 0.494587
-0.8643 0.0831968 0.0943893
-0.687029 -0.381734 0.381396
-0.865173 -0.270888 0.0945563
-0.800636 -0.188488 0.188946
-0.712392 -0.482237 0.152628
-0.534356 -0.593205 0.439599
-0.247455 -0.769955 0.329605
-0.495181 -0.611308 0.305221
0.711539 0.482963 -0.152513
0.247165 0.770137 -0.329635
0.53458 0.593171 -0.439747
0.494722 0.611745 -0.305252
0.616574 0.540987 0
0.152592 0.828411 0.176896
0.152592 0.828411 -0.176896
0.305183 0.728044 0
0.711539 0.482963 0.152513
0.53458 0.593171 0.439747
0.247165 0.770137 0.329635
0.494722 0.611745 0.305252
0.769849 0.330231 0.247168
0.482841 0.15285 0.711558
0.593006 0.440007 0.534565
0.611457 0.305849 0.494725
0.769146 0.140692 0.246999
0.592024 -0.324005 0.534427
0.482563 -0.0367227 0.711588
0.610475 -0.0732633 0.494587
0.8643 0.0831968 0.0943893
0.865173 -0.270888 0.0945563
0.687029 -0.381734 0.381396
0.800636 -0.188488 0.188946
0.8643 0.0831968 -0.0943893
0.687029 -0.381734 -0.381396
0.865173 -0.270888 -0.0945563
0.800636 -0.188488 -0.188946
0.769187 0.140974 -0.246852
0.482763 -0.0361777 -0.711415
0.592183 -0.323742 -0.534402
0.610676 -0.0727183 -0.494414
0.76989 0.330513 -0.247021
0.5931 0.440247 -0.534425
0.482976 0.153372 -0.71127
0.611593 0.306371 -0.494438
0.712392 -0.482237 0.152628
0.247455 -0.769955 0.329605
0.534356 -0.593205 0.439599
0.495181 -0.611308 0.305221
0.617962 -0.539952 -0.000313997
0.153296 -0.827854 -0.177619
0.153275 -0.827949 0.176719
0.306572 -0.727017 -0.000606994
0.712413 -0.482143 -0.152942
0.534331 -0.593024 -0.43986
0.247451 -0.769679 -0.33018
0.495177 -0.611032 -0.305796
-0.711539 0.482963 0.152513
-0.247165 0.770137 0.329635
-0.53458 0.593171 0.439747
-0.494722 0.611745 0.305252
-0.616574 0.540987 0
-0.152592 0.828411 -0.176896
-0.152592 0.828411 0.176896
-0.305183 0.728044 0
-0.711539 0.482963 -0.152513
-0.53458 0.593171 -0.439747
-0.247165 0.770137 -0.329635
-0.494722 0.611745 -0.305252
-0.769802 0.329861 -0.247407
-0.482675 0.152154 -0.712013
-0.592887 0.439681 -0.534782
-0.611292 0.305153 -0.49518
-0.769278 0.14049 -0.246824
-0.59239 -0.32407 -0.533834
-0.482702 -0.0373263 -0.711647
-0.610794 -0.0736987 -0.494233
-0.86448 0.0833651 -0.093976
-0.86547 -0.270684 -0.094238
-0.687506 -0.381363 -0.380664
-0.801113 -0.188116 -0.188214
-0.769849 0.330231 0.247168
-0.593006 0.440007 0.534565
-0.482841 0.15285 0.711558
-0.611457 0.305849 0.494725
-0.71271 -0.481939 -0.152624
-0.247894 -0.769636 -0.329963
-0.535071 -0.592778 -0.439324
-0.495918 -0.610786 -0.30526
-0.617962 -0.539952 -0.000313997
-0.153275 -0.827949 0.176719
-0.153296 -0.827854 -0.177619
-0.306572 -0.727017 -0.000606994
-0.152904 0.711966 0.482405
-0.33027 0.247411 0.769673
-0.440022 0.534731 0.592746
-0.305903 0.495134 0.611022
0 0.617097 0.540392
0.177271 0.152853 0.828114
-0.177271 0.152853 0.828114
0 0.305706 0.727449
4 76 290 75 73
4 78 291 75 67
4 80 292 74 22
4 82 293 76 73
4 85 294 84 47
4 87 295 84 38
4 88 296 77 11
4 89 297 85 47
4 92 298 91 72
4 94 299 91 60
4 96 300 90 70
4 98 301 92 72
4 101 302 100 71
4 103 303 100 64
4 104 304 93 19
4 105 305 101 71
4 108 306 107 44
4 110 307 107 50
4 111 308 102 9
4 112 309 108 44
4 115 310 114 69
4 117 311 114 58
4 119 312 113 56
4 121 313 115 69
4 124 314 123 68
4 125 315 97 7
4 122 316 96 70
4 126 317 124 68
4 129 318 128 29
4 131 319 128 45
4 132 320 125 7
4 133 321 129 29
4 136 322 135 66
4 138 323 135 36
4 140 324 134 34
4 142 325 136 66
4 144 326 143 20
4 147 327 146 20
4 149 328 148 21
4 148 329 146 21
4 152 330 151 24
4 154 331 153 23
4 156 332 155 24
4 156 333 153 21
4 158 334 157 26
4 160 335 159 25
4 163 336 162 25
4 162 337 160 25
4 165 338 164 27
4 166 339 147 20
4 168 340 167 27
4 168 341 166 20
4 171 342 170 30
4 173 343 172 28
4 175 344 174 30
4 175 345 172 29
4 177 346 176 31
4 180 347 179 31
4 182 348 181 32
4 181 349 179 32
4 184 350 183 33
4 186 351 185 33
4 187 352 180 31
4 187 353 185 34
4 189 354 188 35
4 191 355 190 35
4 192 356 186 33
4 192 357 190 36
4 194 358 193 37
4 196 359 195 37
4 197 360 191 35
4 197 361 195 38
4 199 362 198 39
4 202 363 201 39
4 204 364 203 40
4 203 365 201 40
4 206 366 205 41
4 209 367 208 41
4 211 368 210 42
4 210 369 208 42
4 213 370 212 43
4 215 371 214 43
4 216 372 209 41
4 216 373 214 44
4 217 374 171 30
4 218 375 131 45
4 219 376 215 43
4 219 377 218 45
4 221 378 220 46
4 223 379 222 46
4 224 380 204 40
4 224 381 222 47
4 226 382 225 48
4 229 383 228 48
4 231 384 230 49
4 230 385 228 49
4 232 386 211 42
4 233 387 110 50
4 234 388 229 48
4 234 389 233 50
4 237 390 236 53
4 240 391 239 51
4 243 392 242 52
4 242 393 239 52
4 245 394 244 54
4 247 395 246 54
4 248 396 240 51
4 248 397 246 32
4 250 398 249 55
4 252 399 251 55
4 253 400 247 54
4 253 401 251 56
4 255 402 254 57
4 257 403 256 57
4 258 404 252 55
4 258 405 256 58
4 260 406 259 59
4 262 407 261 59
4 263 408 257 57
4 263 409 261 60
4 264 410 158 26
4 266 411 265 61
4 268 412 267 61
4 267 413 266 61
4 269 414 237 53
4 271 415 270 62
4 273 416 272 62
4 272 417 271 62
4 275 418 274 63
4 277 419 276 63
4 278 420 268 61
4 278 421 276 64
4 279 422 165 27
4 280 423 231 49
4 281 424 277 63
4 281 425 280 49
4 283 426 282 65
4 285 427 284 65
4 286 428 243 52
4 286 429 284 62
4 287 430 142 66
4 288 431 78 67
4 289 432 285 65
4 289 433 288 67
4 22 74 290 76
4 67 75 290 74
4 11 77 291 78
4 73 75 291 77
4 12 79 292 80
4 67 74 292 79
4 10 81 293 82
4 22 76 293 81
4 73 83 294 85
4 38 84 294 83
4 18 86 295 87
4 47 84 295 86
4 38 83 296 88
4 73 77 296 83
4 10 82 297 89
4 73 85 297 82
4 70 90 298 92
4 60 91 298 90
4 19 93 299 94
4 72 91 299 93
4 8 95 300 96
4 60 90 300 95
4 7 97 301 98
4 70 92 301 97
4 72 99 302 101
4 64 100 302 99
4 9 102 303 103
4 71 100 303 102
4 64 99 304 104
4 72 93 304 99
4 7 98 305 105
4 72 101 305 98
4 71 106 306 108
4 50 107 306 106
4 17 109 307 110
4 44 107 307 109
4 50 106 308 111
4 71 102 308 106
4 7 105 309 112
4 71 108 309 105
4 56 113 310 115
4 58 114 310 113
4 8 116 311 117
4 69 114 311 116
4 15 118 312 119
4 58 113 312 118
4 6 120 313 121
4 56 115 313 120
4 69 122 314 124
4 70 123 314 122
4 68 123 315 125
4 70 97 315 123
4 69 116 316 122
4 8 96 316 116
4 6 121 317 126
4 69 124 317 121
4 68 127 318 129
4 45 128 318 127
4 13 130 319 131
4 29 128 319 130
4 45 127 320 132
4 68 125 320 127
4 6 126 321 133
4 68 129 321 126
4 34 134 322 136
4 36 135 322 134
4 11 137 323 138
4 66 135 323 137
4 14 139 324 140
4 36 134 324 139
4 5 141 325 142
4 34 136 325 141
4 22 81 326 144
4 10 143 326 81
4 0 145 327 147
4 21 146 327 145
4 12 80 328 149
4 22 148 328 80
4 22 144 329 148
4 20 146 329 144
4 3 150 330 152
4 23 151 330 150
4 12 149 331 154
4 21 153 331 149
4 21 145 332 156
4 0 155 332 145
4 24 151 333 156
4 23 153 333 151
4 3 152 334 158
4 24 157 334 152
4 24 155 335 160
4 0 159 335 155
4 4 161 336 163
4 26 162 336 161
4 26 157 337 162
4 24 160 337 157
4 4 163 338 165
4 25 164 338 163
4 25 159 339 166
4 0 147 339 159
4 20 143 340 168
4 10 167 340 143
4 27 164 341 168
4 25 166 341 164
4 1 169 342 171
4 28 170 342 169
4 6 133 343 173
4 29 172 343 133
4 29 130 344 175
4 13 174 344 130
4 30 170 345 175
4 28 172 345 170
4 28 169 346 177
4 1 176 346 169
4 5 178 347 180
4 32 179 347 178
4 6 173 348 182
4 28 181 348 173
4 28 177 349 181
4 31 179 349 177
4 31 176 350 184
4 1 183 350 176
4 14 140 351 186
4 34 185 351 140
4 34 141 352 187
4 5 180 352 141
4 31 184 353 187
4 33 185 353 184
4 33 183 354 189
4 1 188 354 183
4 11 138 355 191
4 36 190 355 138
4 36 139 356 192
4 14 186 356 139
4 33 189 357 192
4 35 190 357 189
4 35 188 358 194
4 1 193 358 188
4 18 87 359 196
4 38 195 359 87
4 38 88 360 197
4 11 191 360 88
4 35 194 361 197
4 37 195 361 194
4 37 193 362 199
4 1 198 362 193
4 2 200 363 202
4 40 201 363 200
4 18 196 364 204
4 37 203 364 196
4 37 199 365 203
4 39 201 365 199
4 39 198 366 206
4 1 205 366 198
4 17 207 367 209
4 42 208 367 207
4 2 202 368 211
4 39 210 368 202
4 39 206 369 210
4 41 208 369 206
4 41 205 370 213
4 1 212 370 205
4 7 112 371 215
4 44 214 371 112
4 44 109 372 216
4 17 209 372 109
4 41 213 373 216
4 43 214 373 213
4 43 212 374 217
4 1 171 374 212
4 30 174 375 218
4 13 131 375 174
4 45 132 376 219
4 7 215 376 132
4 43 217 377 219
4 30 218 377 217
4 40 200 378 221
4 2 220 378 200
4 10 89 379 223
4 47 222 379 89
4 47 86 380 224
4 18 204 380 86
4 40 221 381 224
4 46 222 381 221
4 46 220 382 226
4 2 225 382 220
4 9 227 383 229
4 49 228 383 227
4 10 223 384 231
4 46 230 384 223
4 46 226 385 230
4 48 228 385 226
4 48 225 386 232
4 2 211 386 225
4 42 207 387 233
4 17 110 387 207
4 50 111 388 234
4 9 229 388 111
4 48 232 389 234
4 42 233 389 232
4 3 235 390 237
4 51 236 390 235
4 5 238 391 240
4 52 239 391 238
4 16 241 392 243
4 53 242 392 241
4 53 236 393 242
4 51 239 393 236
4 51 235 394 245
4 3 244 394 235
4 6 182 395 247
4 32 246 395 182
4 32 178 396 248
4 5 240 396 178
4 51 245 397 248
4 54 246 397 245
4 54 244 398 250
4 3 249 398 244
4 15 119 399 252
4 56 251 399 119
4 56 120 400 253
4 6 247 400 120
4 54 250 401 253
4 55 251 401 250
4 55 249 402 255
4 3 254 402 249
4 8 117 403 257
4 58 256 403 117
4 58 118 404 258
4 15 252 404 118
4 55 255 405 258
4 57 256 405 255
4 57 254 406 260
4 3 259 406 254
4 19 94 407 262
4 60 261 407 94
4 60 95 408 263
4 8 257 408 95
4 57 260 409 263
4 59 261 409 260
4 59 259 410 264
4 3 158 410 259
4 26 161 411 266
4 4 265 411 161
4 19 262 412 268
4 59 267 412 262
4 59 264 413 267
4 26 266 413 264
4 23 150 414 269
4 3 237 414 150
4 53 241 415 271
4 16 270 415 241
4 12 154 416 273
4 23 272 416 154
4 23 269 417 272
4 53 271 417 269
4 61 265 418 275
4 4 274 418 265
4 9 103 419 277
4 64 276 419 103
4 64 104 420 278
4 19 268 420 104
4 61 275 421 278
4 63 276 421 275
4 63 274 422 279
4 4 165 422 274
4 27 167 423 280
4 10 231 423 167
4 49 227 424 281
4 9 277 424 227
4 63 279 425 281
4 27 280 425 279
4 52 238 426 283
4 5 282 426 238
4 12 273 427 285
4 62 284 427 273
4 62 270 428 286
4 16 243 428 270
4 52 283 429 286
4 65 284 429 283
4 65 282 430 287
4 5 142 430 282
4 66 137 431 288
4 11 78 431 137
4 67 79 432 289
4 12 285 432 79
4 65 287 433 289
4 66 288 433 287
