ply
format ascii 1.0
element vertex 670
property float x
property float y
property float z
element face 1024
property list uchar int vertex_indices
end_header
-0.200012 -0.200012 -0.200012
0.200012 0.200012 -0.200012
0.200012 -0.200012 0.200012
-0.200012 0.200012 0.200012
4.65661e-10 1.16415e-10 -0.294922
4.65661e-10 0.294922 -1.16415e-10
-0.294922 4.65661e-10 -3.49246e-10
4.65661e-10 -0.294922 1.16415e-10
0.294922 4.65661e-10 4.65661e-10
4.65661e-10 -1.16415e-10 0.294922
-0.250732 -0.147705 -0.147705
-0.196777 -0.196777 0.0263673
-0.147705 -0.250732 -0.147705
-0.147705 -0.147705 -0.250732
-0.196777 0.0263673 -0.196777
0.0263673 -0.196777 -0.196777
0.147705 0.147705 -0.250732
0.196777 -0.0263673 -0.196777
0.250732 0.147705 -0.147705
0.147705 0.250732 -0.147705
-0.0263673 0.196777 -0.196777
0.196777 0.196777 0.0263673
0.147705 -0.250732 0.147705
-0.0263673 -0.196777 0.196777
0.147705 -0.147705 0.250732
0.250732 -0.147705 0.147705
0.196777 -0.196777 -0.0263673
0.196777 0.0263673 0.196777
-0.147705 0.147705 0.250732
-0.196777 -0.0263673 0.196777
-0.250732 0.147705 0.147705
-0.147705 0.250732 0.147705
0.0263673 0.196777 0.196777
-0.196777 0.196777 -0.0263673
-0.18811 -0.217285 -0.18811
-0.137329 -0.213135 -0.213135
-0.18811 -0.18811 -0.217285
-0.217285 -0.18811 -0.18811
-0.213135 -0.213135 -0.137329
-0.213135 -0.137329 -0.213135
0.217285 0.18811 -0.18811
0.213135 0.213135 -0.137329
0.18811 0.217285 -0.18811
0.18811 0.18811 -0.217285
0.213135 0.137329 -0.213135
0.137329 0.213135 -0.213135
0.18811 -0.18811 0.217285
0.213135 -0.137329 0.213135
0.217285 -0.18811 0.18811
0.18811 -0.217285 0.18811
0.137329 -0.213135 0.213135
0.213135 -0.213135 0.137329
-0.217285 0.18811 0.18811
-0.213135 0.213135 0.137329
-0.18811 0.217285 0.18811
-0.18811 0.18811 0.217285
-0.213135 0.137329 0.213135
-0.137329 0.213135 0.213135
0.0811158 0.0811158 -0.281189
0.065857 0.172668 -0.244568
-0.0187989 0.103394 -0.26648
0.103394 -0.0187989 -0.26648
0.172668 0.065857 -0.244568
0.0187989 -0.103394 -0.26648
0.118531 -0.118531 -0.206299
-0.0811158 -0.0811158 -0.281189
-0.065857 -0.172668 -0.244568
-0.103394 0.0187989 -0.26648
-0.172668 -0.065857 -0.244568
-0.118531 0.118531 -0.206299
-0.0811158 0.281189 0.0811158
-0.172668 0.244568 0.065857
-0.103394 0.26648 -0.0187989
0.0187989 0.26648 0.103394
-0.065857 0.244568 0.172668
0.103394 0.26648 0.0187989
0.118531 0.206299 0.118531
0.0811158 0.281189 -0.0811158
0.172668 0.244568 -0.065857
-0.0187989 0.26648 -0.103394
0.065857 0.244568 -0.172668
-0.118531 0.206299 -0.118531
-0.26648 0.103394 -0.0187989
-0.244568 0.172668 0.065857
-0.281189 0.0811158 0.0811158
-0.26648 0.0187989 -0.103394
-0.206299 0.118531 -0.118531
-0.281189 -0.0811158 -0.0811158
-0.244568 -0.065857 -0.172668
-0.26648 -0.103394 0.0187989
-0.244568 -0.172668 -0.065857
-0.26648 -0.0187989 0.103394
-0.206299 -0.118531 0.118531
-0.244568 0.065857 0.172668
0.0811158 -0.281189 0.0811158
0.172668 -0.244568 0.065857
0.103394 -0.26648 -0.0187989
-0.0187989 -0.26648 0.103394
0.065857 -0.244568 0.172668
-0.103394 -0.26648 0.0187989
-0.118531 -0.206299 0.118531
-0.0811158 -0.281189 -0.0811158
-0.172668 -0.244568 -0.065857
0.0187989 -0.26648 -0.103394
-0.065857 -0.244568 -0.172668
0.118531 -0.206299 -0.118531
0.281189 -0.0811158 0.0811158
0.244568 -0.065857 0.172668
0.26648 0.0187989 0.103394
0.26648 -0.103394 -0.0187989
0.244568 -0.172668 0.065857
0.26648 -0.0187989 -0.103394
0.206299 -0.118531 -0.118531
0.281189 0.0811158 -0.0811158
0.244568 0.065857 -0.172668
0.26648 0.103394 0.0187989
0.244568 0.172668 -0.065857
0.206299 0.118531 0.118531
-0.0811158 0.0811158 0.281189
-0.065857 0.172668 0.244568
0.0187989 0.103394 0.26648
-0.103394 -0.0187989 0.26648
-0.172668 0.065857 0.244568
-0.0187989 -0.103394 0.26648
-0.118531 -0.118531 0.206299
0.0811158 -0.0811158 0.281189
0.065857 -0.172668 0.244568
0.103394 0.0187989 0.26648
0.172668 -0.065857 0.244568
0.118531 0.118531 0.206299
-0.197388 -0.197388 -0.2052
-0.205932 -0.184448 -0.205932
-0.2052 -0.197388 -0.197388
-0.197388 -0.2052 -0.197388
-0.184448 -0.205932 -0.205932
-0.205932 -0.205932 -0.184448
0.197388 0.2052 -0.197388
0.184448 0.205932 -0.205932
0.197388 0.197388 -0.2052
0.2052 0.197388 -0.197388
0.205932 0.205932 -0.184448
0.205932 0.184448 -0.205932
0.2052 -0.197388 0.197388
0.205932 -0.205932 0.184448
0.197388 -0.2052 0.197388
0.197388 -0.197388 0.2052
0.205932 -0.184448 0.205932
0.184448 -0.205932 0.205932
-0.197388 0.2052 0.197388
-0.184448 0.205932 0.205932
-0.197388 0.197388 0.2052
-0.2052 0.197388 0.197388
-0.205932 0.205932 0.184448
-0.205932 0.184448 0.205932
-0.010254 0.0522462 -0.28711
-0.0620119 0.0620119 -0.269532
-0.0522462 0.010254 -0.28711
0.041504 0.041504 -0.291016
0.0317383 0.0922852 -0.280274
0.0522462 -0.010254 -0.28711
0.0922852 0.0317383 -0.280274
0.010254 -0.0522462 -0.28711
0.0620119 -0.0620119 -0.269532
-0.041504 -0.041504 -0.291016
-0.0317383 -0.0922852 -0.280274
-0.0922852 -0.0317383 -0.280274
-0.0522462 0.28711 -0.010254
-0.0620119 0.269532 -0.0620119
-0.010254 0.28711 -0.0522462
-0.041504 0.291016 0.041504
-0.0922852 0.280274 0.0317383
0.010254 0.28711 0.0522462
-0.0317383 0.280274 0.0922852
0.0522462 0.28711 0.010254
0.0620119 0.269532 0.0620119
0.041504 0.291016 -0.041504
0.0922852 0.280274 -0.0317383
0.0317383 0.280274 -0.0922852
-0.291016 0.041504 0.041504
-0.280274 0.0317383 0.0922852
-0.28711 -0.010254 0.0522462
-0.28711 0.0522462 -0.010254
-0.280274 0.0922852 0.0317383
-0.28711 0.010254 -0.0522462
-0.269532 0.0620119 -0.0620119
-0.291016 -0.041504 -0.041504
-0.280274 -0.0317383 -0.0922852
-0.28711 -0.0522462 0.010254
-0.280274 -0.0922852 -0.0317383
-0.269532 -0.0620119 0.0620119
0.0522462 -0.28711 -0.010254
0.0620119 -0.269532 -0.0620119
0.010254 -0.28711 -0.0522462
0.041504 -0.291016 0.041504
0.0922852 -0.280274 0.0317383
-0.010254 -0.28711 0.0522462
0.0317383 -0.280274 0.0922852
-0.0522462 -0.28711 0.010254
-0.0620119 -0.269532 0.0620119
-0.041504 -0.291016 -0.041504
-0.0922852 -0.280274 -0.0317383
-0.0317383 -0.280274 -0.0922852
0.28711 0.010254 0.0522462
0.269532 0.0620119 0.0620119
0.28711 0.0522462 0.010254
0.291016 -0.041504 0.041504
0.280274 -0.0317383 0.0922852
0.28711 -0.0522462 -0.010254
0.280274 -0.0922852 0.0317383
0.28711 -0.010254 -0.0522462
0.269532 -0.0620119 -0.0620119
0.291016 0.041504 -0.041504
0.280274 0.0317383 -0.0922852
0.280274 0.0922852 -0.0317383
0.010254 0.0522462 0.28711
0.0620119 0.0620119 0.269532
0.0522462 0.010254 0.28711
-0.041504 0.041504 0.291016
-0.0317383 0.0922852 0.280274
-0.0522462 -0.010254 0.28711
-0.0922852 0.0317383 0.280274
-0.010254 -0.0522462 0.28711
-0.0620119 -0.0620119 0.269532
0.041504 -0.041504 0.291016
0.0317383 -0.0922852 0.280274
0.0922852 -0.0317383 0.280274
-0.267212 -0.117065 -0.117065
-0.268433 -0.12854 -0.0718994
-0.253296 -0.159302 -0.108521
-0.253296 -0.108521 -0.159302
-0.268433 -0.0718994 -0.12854
-0.23645 -0.140015 -0.182983
-0.229126 -0.103882 -0.197143
-0.233276 -0.171509 -0.171509
-0.219849 -0.165405 -0.198608
-0.23645 -0.140015 -0.182983
-0.23645 -0.182983 -0.140015
-0.219849 -0.198608 -0.165405
-0.229126 -0.197143 -0.103882
-0.23645 -0.182983 -0.140015
-0.1521 -0.235596 0.0244141
-0.140869 -0.257569 -0.0244141
-0.185791 -0.225342 -0.0205078
-0.160401 -0.203858 0.0732423
-0.112549 -0.240967 0.0693361
-0.1521 -0.235596 0.0244141
-0.203858 -0.160401 0.0732423
-0.164795 -0.164795 0.120606
-0.235596 -0.1521 0.0244141
-0.240967 -0.112549 0.0693361
-0.225342 -0.185791 -0.0205078
-0.257569 -0.140869 -0.0244141
-0.235596 -0.1521 0.0244141
-0.185791 -0.225342 -0.0205078
-0.211914 -0.211914 -0.0637207
-0.225342 -0.185791 -0.0205078
-0.117065 -0.267212 -0.117065
-0.0718994 -0.268433 -0.12854
-0.108521 -0.253296 -0.159302
-0.159302 -0.253296 -0.108521
-0.12854 -0.268433 -0.0718994
-0.182983 -0.23645 -0.140015
-0.197143 -0.229126 -0.103882
-0.171509 -0.233276 -0.171509
-0.198608 -0.219849 -0.165405
-0.182983 -0.23645 -0.140015
-0.140015 -0.23645 -0.182983
-0.165405 -0.219849 -0.198608
-0.103882 -0.229126 -0.197143
-0.140015 -0.23645 -0.182983
-0.117065 -0.117065 -0.267212
-0.12854 -0.0718994 -0.268433
-0.159302 -0.108521 -0.253296
-0.108521 -0.159302 -0.253296
-0.0718994 -0.12854 -0.268433
-0.140015 -0.182983 -0.23645
-0.103882 -0.197143 -0.229126
-0.171509 -0.171509 -0.233276
-0.165405 -0.198608 -0.219849
-0.140015 -0.182983 -0.23645
-0.182983 -0.140015 -0.23645
-0.198608 -0.165405 -0.219849
-0.197143 -0.103882 -0.229126
-0.182983 -0.140015 -0.23645
-0.235596 0.0244141 -0.1521
-0.257569 -0.0244141 -0.140869
-0.225342 -0.0205078 -0.185791
-0.203858 0.0732423 -0.160401
-0.240967 0.0693361 -0.112549
-0.235596 0.0244141 -0.1521
-0.160401 0.0732423 -0.203858
-0.164795 0.120606 -0.164795
-0.1521 0.0244141 -0.235596
-0.112549 0.0693361 -0.240967
-0.185791 -0.0205078 -0.225342
-0.140869 -0.0244141 -0.257569
-0.1521 0.0244141 -0.235596
-0.225342 -0.0205078 -0.185791
-0.211914 -0.0637207 -0.211914
-0.185791 -0.0205078 -0.225342
0.0244141 -0.235596 -0.1521
0.0693361 -0.240967 -0.112549
0.0732423 -0.203858 -0.160401
-0.0205078 -0.225342 -0.185791
-0.0244141 -0.257569 -0.140869
0.0244141 -0.235596 -0.1521
-0.0205078 -0.185791 -0.225342
-0.0637207 -0.211914 -0.211914
-0.0205078 -0.225342 -0.185791
0.0244141 -0.1521 -0.235596
-0.0244141 -0.140869 -0.257569
-0.0205078 -0.185791 -0.225342
0.0732423 -0.160401 -0.203858
0.0693361 -0.112549 -0.240967
0.0244141 -0.1521 -0.235596
0.120606 -0.164795 -0.164795
0.117065 0.117065 -0.267212
0.12854 0.0718994 -0.268433
0.159302 0.108521 -0.253296
0.108521 0.159302 -0.253296
0.0718994 0.12854 -0.268433
0.140015 0.182983 -0.23645
0.103882 0.197143 -0.229126
0.171509 0.171509 -0.233276
0.165405 0.198608 -0.219849
0.140015 0.182983 -0.23645
0.182983 0.140015 -0.23645
0.198608 0.165405 -0.219849
0.197143 0.103882 -0.229126
0.182983 0.140015 -0.23645
0.235596 -0.0244141 -0.1521
0.257569 0.0244141 -0.140869
0.225342 0.0205078 -0.185791
0.203858 -0.0732423 -0.160401
0.240967 -0.0693361 -0.112549
0.235596 -0.0244141 -0.1521
0.160401 -0.0732423 -0.203858
0.164795 -0.120606 -0.164795
0.1521 -0.0244141 -0.235596
0.112549 -0.0693361 -0.240967
0.185791 0.0205078 -0.225342
0.140869 0.0244141 -0.257569
0.1521 -0.0244141 -0.235596
0.225342 0.0205078 -0.185791
0.211914 0.0637207 -0.211914
0.185791 0.0205078 -0.225342
0.267212 0.117065 -0.117065
0.268433 0.12854 -0.0718994
0.253296 0.159302 -0.108521
0.253296 0.108521 -0.159302
0.268433 0.0718994 -0.12854
0.23645 0.140015 -0.182983
0.229126 0.103882 -0.197143
0.233276 0.171509 -0.171509
0.219849 0.165405 -0.198608
0.23645 0.140015 -0.182983
0.23645 0.182983 -0.140015
0.219849 0.198608 -0.165405
0.229126 0.197143 -0.103882
0.23645 0.182983 -0.140015
0.117065 0.267212 -0.117065
0.0718994 0.268433 -0.12854
0.108521 0.253296 -0.159302
0.159302 0.253296 -0.108521
0.12854 0.268433 -0.0718994
0.182983 0.23645 -0.140015
0.197143 0.229126 -0.103882
0.171509 0.233276 -0.171509
0.198608 0.219849 -0.165405
0.182983 0.23645 -0.140015
0.140015 0.23645 -0.182983
0.165405 0.219849 -0.198608
0.103882 0.229126 -0.197143
0.140015 0.23645 -0.182983
-0.0244141 0.235596 -0.1521
-0.0693361 0.240967 -0.112549
-0.0732423 0.203858 -0.160401
0.0205078 0.225342 -0.185791
0.0244141 0.257569 -0.140869
-0.0244141 0.235596 -0.1521
0.0205078 0.185791 -0.225342
0.0637207 0.211914 -0.211914
0.0205078 0.225342 -0.185791
-0.0244141 0.1521 -0.235596
0.0244141 0.140869 -0.257569
0.0205078 0.185791 -0.225342
-0.0732423 0.160401 -0.203858
-0.0693361 0.112549 -0.240967
-0.0244141 0.1521 -0.235596
-0.120606 0.164795 -0.164795
0.235596 0.1521 0.0244141
0.240967 0.112549 0.0693361
0.203858 0.160401 0.0732423
0.225342 0.185791 -0.0205078
0.257569 0.140869 -0.0244141
0.235596 0.1521 0.0244141
0.185791 0.225342 -0.0205078
0.211914 0.211914 -0.0637207
0.225342 0.185791 -0.0205078
0.1521 0.235596 0.0244141
0.140869 0.257569 -0.0244141
0.185791 0.225342 -0.0205078
0.160401 0.203858 0.0732423
0.112549 0.240967 0.0693361
0.1521 0.235596 0.0244141
0.164795 0.164795 0.120606
0.117065 -0.267212 0.117065
0.0718994 -0.268433 0.12854
0.108521 -0.253296 0.159302
0.159302 -0.253296 0.108521
0.12854 -0.268433 0.0718994
0.182983 -0.23645 0.140015
0.197143 -0.229126 0.103882
0.171509 -0.233276 0.171509
0.198608 -0.219849 0.165405
0.182983 -0.23645 0.140015
0.140015 -0.23645 0.182983
0.165405 -0.219849 0.198608
0.103882 -0.229126 0.197143
0.140015 -0.23645 0.182983
-0.0244141 -0.1521 0.235596
0.0244141 -0.140869 0.257569
0.0205078 -0.185791 0.225342
-0.0732423 -0.160401 0.203858
-0.0693361 -0.112549 0.240967
-0.0244141 -0.1521 0.235596
-0.0732423 -0.203858 0.160401
-0.120606 -0.164795 0.164795
-0.0244141 -0.235596 0.1521
-0.0693361 -0.240967 0.112549
0.0205078 -0.225342 0.185791
0.0244141 -0.257569 0.140869
-0.0244141 -0.235596 0.1521
0.0205078 -0.185791 0.225342
0.0637207 -0.211914 0.211914
0.0205078 -0.225342 0.185791
0.117065 -0.117065 0.267212
0.12854 -0.0718994 0.268433
0.159302 -0.108521 0.253296
0.108521 -0.159302 0.253296
0.0718994 -0.12854 0.268433
0.140015 -0.182983 0.23645
0.103882 -0.197143 0.229126
0.171509 -0.171509 0.233276
0.165405 -0.198608 0.219849
0.140015 -0.182983 0.23645
0.182983 -0.140015 0.23645
0.198608 -0.165405 0.219849
0.197143 -0.103882 0.229126
0.182983 -0.140015 0.23645
0.267212 -0.117065 0.117065
0.268433 -0.12854 0.0718994
0.253296 -0.159302 0.108521
0.253296 -0.108521 0.159302
0.268433 -0.0718994 0.12854
0.23645 -0.140015 0.182983
0.229126 -0.103882 0.197143
0.233276 -0.171509 0.171509
0.219849 -0.165405 0.198608
0.23645 -0.140015 0.182983
0.23645 -0.182983 0.140015
0.219849 -0.198608 0.165405
0.229126 -0.197143 0.103882
0.23645 -0.182983 0.140015
0.235596 -0.1521 -0.0244141
0.240967 -0.112549 -0.0693361
0.203858 -0.160401 -0.0732423
0.225342 -0.185791 0.0205078
0.257569 -0.140869 0.0244141
0.235596 -0.1521 -0.0244141
0.185791 -0.225342 0.0205078
0.211914 -0.211914 0.0637207
0.225342 -0.185791 0.0205078
0.1521 -0.235596 -0.0244141
0.140869 -0.257569 0.0244141
0.185791 -0.225342 0.0205078
0.160401 -0.203858 -0.0732423
0.112549 -0.240967 -0.0693361
0.1521 -0.235596 -0.0244141
0.164795 -0.164795 -0.120606
0.1521 0.0244141 0.235596
0.112549 0.0693361 0.240967
0.160401 0.0732423 0.203858
0.185791 -0.0205078 0.225342
0.140869 -0.0244141 0.257569
0.1521 0.0244141 0.235596
0.225342 -0.0205078 0.185791
0.211914 -0.0637207 0.211914
0.185791 -0.0205078 0.225342
0.235596 0.0244141 0.1521
0.257569 -0.0244141 0.140869
0.225342 -0.0205078 0.185791
0.203858 0.0732423 0.160401
0.240967 0.0693361 0.112549
0.235596 0.0244141 0.1521
0.164795 0.120606 0.164795
-0.117065 0.117065 0.267212
-0.12854 0.0718994 0.268433
-0.159302 0.108521 0.253296
-0.108521 0.159302 0.253296
-0.0718994 0.12854 0.268433
-0.140015 0.182983 0.23645
-0.103882 0.197143 0.229126
-0.171509 0.171509 0.233276
-0.165405 0.198608 0.219849
-0.140015 0.182983 0.23645
-0.182983 0.140015 0.23645
-0.198608 0.165405 0.219849
-0.197143 0.103882 0.229126
-0.182983 0.140015 0.23645
-0.1521 -0.0244141 0.235596
-0.112549 -0.0693361 0.240967
-0.160401 -0.0732423 0.203858
-0.185791 0.0205078 0.225342
-0.140869 0.0244141 0.257569
-0.1521 -0.0244141 0.235596
-0.225342 0.0205078 0.185791
-0.211914 0.0637207 0.211914
-0.185791 0.0205078 0.225342
-0.235596 -0.0244141 0.1521
-0.257569 0.0244141 0.140869
-0.225342 0.0205078 0.185791
-0.203858 -0.0732423 0.160401
-0.240967 -0.0693361 0.112549
-0.235596 -0.0244141 0.1521
-0.164795 -0.120606 0.164795
-0.253296 0.108521 0.159302
-0.268433 0.0718994 0.12854
-0.267212 0.117065 0.117065
-0.23645 0.140015 0.182983
-0.229126 0.103882 0.197143
-0.233276 0.171509 0.171509
-0.219849 0.165405 0.198608
-0.23645 0.140015 0.182983
-0.23645 0.182983 0.140015
-0.219849 0.198608 0.165405
-0.253296 0.159302 0.108521
-0.229126 0.197143 0.103882
-0.23645 0.182983 0.140015
-0.268433 0.12854 0.0718994
-0.117065 0.267212 0.117065
-0.0718994 0.268433 0.12854
-0.108521 0.253296 0.159302
-0.159302 0.253296 0.108521
-0.12854 0.268433 0.0718994
-0.182983 0.23645 0.140015
-0.197143 0.229126 0.103882
-0.171509 0.233276 0.171509
-0.198608 0.219849 0.165405
-0.182983 0.23645 0.140015
-0.140015 0.23645 0.182983
-0.165405 0.219849 0.198608
-0.103882 0.229126 0.197143
-0.140015 0.23645 0.182983
0.0732423 0.160401 0.203858
0.0693361 0.112549 0.240967
0.0244141 0.1521 0.235596
0.0732423 0.203858 0.160401
0.120606 0.164795 0.164795
0.0244141 0.235596 0.1521
0.0693361 0.240967 0.112549
-0.0205078 0.225342 0.185791
-0.0244141 0.257569 0.140869
0.0244141 0.235596 0.1521
-0.0205078 0.185791 0.225342
-0.0637207 0.211914 0.211914
-0.0205078 0.225342 0.185791
0.0244141 0.1521 0.235596
-0.0244141 0.140869 0.257569
-0.0205078 0.185791 0.225342
-0.235596 0.1521 -0.0244141
-0.240967 0.112549 -0.0693361
-0.203858 0.160401 -0.0732423
-0.225342 0.185791 0.0205078
-0.257569 0.140869 0.0244141
-0.235596 0.1521 -0.0244141
-0.185791 0.225342 0.0205078
-0.211914 0.211914 0.0637207
-0.225342 0.185791 0.0205078
-0.1521 0.235596 -0.0244141
-0.140869 0.257569 0.0244141
-0.185791 0.225342 0.0205078
-0.160401 0.203858 -0.0732423
-0.112549 0.240967 -0.0693361
-0.1521 0.235596 -0.0244141
-0.164795 0.164795 -0.120606
-0.219849 -0.198608 -0.165405
-0.198608 -0.219849 -0.165405
-0.165405 -0.219849 -0.198608
-0.165405 -0.198608 -0.219849
-0.198608 -0.165405 -0.219849
-0.219849 -0.165405 -0.198608
0.198608 0.165405 -0.219849
0.219849 0.165405 -0.198608
0.219849 0.198608 -0.165405
0.198608 0.219849 -0.165405
0.165405 0.219849 -0.198608
0.165405 0.198608 -0.219849
0.165405 -0.219849 0.198608
0.165405 -0.198608 0.219849
0.198608 -0.165405 0.219849
0.219849 -0.165405 0.198608
0.219849 -0.198608 0.165405
0.198608 -0.219849 0.165405
-0.198608 0.165405 0.219849
-0.219849 0.165405 0.198608
-0.219849 0.198608 0.165405
-0.198608 0.219849 0.165405
-0.165405 0.219849 0.198608
-0.165405 0.198608 0.219849
0.140869 0.0244141 -0.257569
0.12854 0.0718994 -0.268433
0.0718994 0.12854 -0.268433
0.0244141 0.140869 -0.257569
-0.0718994 -0.12854 -0.268433
-0.0244141 -0.140869 -0.257569
0.164795 -0.164795 -0.120606
0.164795 -0.120606 -0.164795
0.120606 -0.164795 -0.164795
-0.140869 -0.0244141 -0.257569
-0.12854 -0.0718994 -0.268433
-0.164795 0.164795 -0.120606
-0.164795 0.120606 -0.164795
-0.120606 0.164795 -0.164795
-0.0244141 0.257569 0.140869
-0.0718994 0.268433 0.12854
-0.12854 0.268433 0.0718994
-0.140869 0.257569 0.0244141
0.12854 0.268433 -0.0718994
0.140869 0.257569 -0.0244141
0.120606 0.164795 0.164795
0.164795 0.164795 0.120606
0.164795 0.120606 0.164795
0.0244141 0.257569 -0.140869
0.0718994 0.268433 -0.12854
-0.257569 0.140869 0.0244141
-0.268433 0.12854 0.0718994
-0.268433 0.0718994 0.12854
-0.257569 0.0244141 0.140869
-0.268433 -0.0718994 -0.12854
-0.257569 -0.0244141 -0.140869
-0.257569 -0.140869 -0.0244141
-0.268433 -0.12854 -0.0718994
-0.164795 -0.164795 0.120606
-0.164795 -0.120606 0.164795
-0.120606 -0.164795 0.164795
0.0244141 -0.257569 0.140869
0.0718994 -0.268433 0.12854
0.12854 -0.268433 0.0718994
0.140869 -0.257569 0.0244141
-0.12854 -0.268433 -0.0718994
-0.140869 -0.257569 -0.0244141
-0.0244141 -0.257569 -0.140869
-0.0718994 -0.268433 -0.12854
0.257569 -0.140869 0.0244141
0.268433 -0.12854 0.0718994
0.268433 -0.0718994 0.12854
0.257569 -0.0244141 0.140869
0.268433 0.0718994 -0.12854
0.257569 0.0244141 -0.140869
0.257569 0.140869 -0.0244141
0.268433 0.12854 -0.0718994
-0.140869 0.0244141 0.257569
-0.12854 0.0718994 0.268433
-0.0718994 0.12854 0.268433
-0.0244141 0.140869 0.257569
0.0718994 -0.12854 0.268433
0.0244141 -0.140869 0.257569
0.140869 -0.0244141 0.257569
0.12854 -0.0718994 0.268433
3 668 669 225
3 125 225 669
3 128 669 668
3 127 668 225
3 666 667 224
3 123 224 667
3 126 667 666
3 125 666 224
3 424 511 222
3 121 222 511
3 124 511 424
3 123 424 222
3 555 481 215
3 127 215 481
3 129 481 555
3 120 555 215
3 664 665 218
3 120 218 665
3 119 665 664
3 118 664 218
3 662 663 220
3 118 220 663
3 122 663 662
3 121 662 220
3 660 661 213
3 113 213 661
3 116 661 660
3 115 660 213
3 658 659 212
3 111 212 659
3 114 659 658
3 113 658 212
3 334 465 210
3 109 210 465
3 112 465 334
3 111 334 210
3 493 391 203
3 115 203 391
3 117 391 493
3 108 493 203
3 656 657 206
3 108 206 657
3 107 657 656
3 106 656 206
3 654 655 208
3 106 208 655
3 110 655 654
3 109 654 208
3 652 653 201
3 101 201 653
3 104 653 652
3 103 652 201
3 650 651 200
3 99 200 651
3 102 651 650
3 101 650 200
3 244 429 198
3 97 198 429
3 100 429 244
3 99 244 198
3 477 301 191
3 103 191 301
3 105 301 477
3 96 477 191
3 648 649 194
3 96 194 649
3 95 649 648
3 94 648 194
3 646 647 196
3 94 196 647
3 98 647 646
3 97 646 196
3 643 644 645
3 124 645 644
3 92 644 643
3 100 643 645
3 523 249 189
3 89 189 249
3 92 249 523
3 91 523 189
3 641 642 188
3 87 188 642
3 90 642 641
3 89 641 188
3 639 640 186
3 85 186 640
3 88 640 639
3 87 639 186
3 637 638 179
3 91 179 638
3 93 638 637
3 84 637 179
3 635 636 182
3 84 182 636
3 83 636 635
3 82 635 182
3 288 571 184
3 82 184 571
3 86 571 288
3 85 288 184
3 633 634 177
3 77 177 634
3 80 634 633
3 79 633 177
3 630 631 632
3 117 632 631
3 76 631 630
3 129 630 632
3 628 629 176
3 75 176 629
3 78 629 628
3 77 628 176
3 403 560 174
3 73 174 560
3 76 560 403
3 75 403 174
3 583 375 167
3 79 167 375
3 81 375 583
3 72 583 167
3 626 627 170
3 72 170 627
3 71 627 626
3 70 626 170
3 624 625 172
3 70 172 625
3 74 625 624
3 73 624 172
3 621 622 623
3 69 623 622
3 86 622 621
3 81 621 623
3 619 620 165
3 65 165 620
3 68 620 619
3 67 619 165
3 616 617 618
3 64 618 617
3 112 617 616
3 105 616 618
3 614 615 164
3 63 164 615
3 66 615 614
3 65 614 164
3 313 339 162
3 61 162 339
3 64 339 313
3 63 313 162
3 387 293 155
3 67 155 293
3 69 293 387
3 60 387 155
3 612 613 158
3 60 158 613
3 59 613 612
3 58 612 158
3 610 611 160
3 58 160 611
3 62 611 610
3 61 610 160
3 565 502 552
3 57 552 502
3 119 502 565
3 74 565 552
3 517 530 508
3 56 508 530
3 93 530 517
3 122 517 508
3 608 609 149
3 55 149 609
3 57 609 608
3 54 608 149
3 577 546 537
3 53 537 546
3 71 546 577
3 83 577 537
3 606 607 152
3 54 152 607
3 53 607 606
3 52 606 152
3 604 605 153
3 52 153 605
3 56 605 604
3 55 604 153
3 471 412 462
3 51 462 412
3 95 412 471
3 110 471 462
3 434 442 418
3 50 418 442
3 126 442 434
3 98 434 418
3 602 603 143
3 49 143 603
3 51 603 602
3 48 602 143
3 487 456 448
3 47 448 456
3 107 456 487
3 128 487 448
3 600 601 146
3 48 146 601
3 47 601 600
3 46 600 146
3 598 599 147
3 46 147 599
3 50 599 598
3 49 598 147
3 381 322 372
3 45 372 322
3 59 322 381
3 80 381 372
3 344 352 328
3 44 328 352
3 114 352 344
3 62 344 328
3 596 597 137
3 43 137 597
3 45 597 596
3 42 596 137
3 397 366 358
3 41 358 366
3 78 366 397
3 116 397 358
3 594 595 140
3 42 140 595
3 41 595 594
3 40 594 140
3 592 593 141
3 40 141 593
3 44 593 592
3 43 592 141
3 298 232 282
3 39 282 232
3 88 232 298
3 68 298 282
3 254 262 238
3 38 238 262
3 102 262 254
3 90 254 238
3 590 591 131
3 37 131 591
3 39 591 590
3 36 590 131
3 307 276 268
3 35 268 276
3 66 276 307
3 104 307 268
3 588 589 134
3 36 134 589
3 35 589 588
3 34 588 134
3 586 587 135
3 34 135 587
3 38 587 586
3 37 586 135
3 0 130 132
3 36 131 130
3 37 132 131
3 130 131 132
3 0 133 130
3 34 134 133
3 36 130 134
3 133 134 130
3 0 132 133
3 37 135 132
3 34 133 135
3 132 135 133
3 1 136 138
3 42 137 136
3 43 138 137
3 136 137 138
3 1 139 136
3 40 140 139
3 42 136 140
3 139 140 136
3 1 138 139
3 43 141 138
3 40 139 141
3 138 141 139
3 2 142 144
3 48 143 142
3 49 144 143
3 142 143 144
3 2 145 142
3 46 146 145
3 48 142 146
3 145 146 142
3 2 144 145
3 49 147 144
3 46 145 147
3 144 147 145
3 3 148 150
3 54 149 148
3 55 150 149
3 148 149 150
3 3 151 148
3 52 152 151
3 54 148 152
3 151 152 148
3 3 150 151
3 55 153 150
3 52 151 153
3 150 153 151
3 4 154 156
3 60 155 154
3 67 156 155
3 154 155 156
3 4 157 154
3 58 158 157
3 60 154 158
3 157 158 154
3 4 159 157
3 61 160 159
3 58 157 160
3 159 160 157
3 4 161 159
3 63 162 161
3 61 159 162
3 161 162 159
3 4 163 161
3 65 164 163
3 63 161 164
3 163 164 161
3 4 156 163
3 67 165 156
3 65 163 165
3 156 165 163
3 5 166 168
3 72 167 166
3 79 168 167
3 166 167 168
3 5 169 166
3 70 170 169
3 72 166 170
3 169 170 166
3 5 171 169
3 73 172 171
3 70 169 172
3 171 172 169
3 5 173 171
3 75 174 173
3 73 171 174
3 173 174 171
3 5 175 173
3 77 176 175
3 75 173 176
3 175 176 173
3 5 168 175
3 79 177 168
3 77 175 177
3 168 177 175
3 6 178 180
3 84 179 178
3 91 180 179
3 178 179 180
3 6 181 178
3 82 182 181
3 84 178 182
3 181 182 178
3 6 183 181
3 85 184 183
3 82 181 184
3 183 184 181
3 6 185 183
3 87 186 185
3 85 183 186
3 185 186 183
3 6 187 185
3 89 188 187
3 87 185 188
3 187 188 185
3 6 180 187
3 91 189 180
3 89 187 189
3 180 189 187
3 7 190 192
3 96 191 190
3 103 192 191
3 190 191 192
3 7 193 190
3 94 194 193
3 96 190 194
3 193 194 190
3 7 195 193
3 97 196 195
3 94 193 196
3 195 196 193
3 7 197 195
3 99 198 197
3 97 195 198
3 197 198 195
3 7 199 197
3 101 200 199
3 99 197 200
3 199 200 197
3 7 192 199
3 103 201 192
3 101 199 201
3 192 201 199
3 8 202 204
3 108 203 202
3 115 204 203
3 202 203 204
3 8 205 202
3 106 206 205
3 108 202 206
3 205 206 202
3 8 207 205
3 109 208 207
3 106 205 208
3 207 208 205
3 8 209 207
3 111 210 209
3 109 207 210
3 209 210 207
3 8 211 209
3 113 212 211
3 111 209 212
3 211 212 209
3 8 204 211
3 115 213 204
3 113 211 213
3 204 213 211
3 9 214 216
3 120 215 214
3 127 216 215
3 214 215 216
3 9 217 214
3 118 218 217
3 120 214 218
3 217 218 214
3 9 219 217
3 121 220 219
3 118 217 220
3 219 220 217
3 9 221 219
3 123 222 221
3 121 219 222
3 221 222 219
3 9 223 221
3 125 224 223
3 123 221 224
3 223 224 221
3 9 216 223
3 127 225 216
3 125 223 225
3 216 225 223
3 10 226 228
3 87 227 226
3 90 228 227
3 226 227 228
3 10 229 226
3 88 230 229
3 87 226 230
3 229 230 226
3 10 231 229
3 39 232 231
3 88 229 232
3 231 232 229
3 10 233 235
3 37 234 233
3 39 235 234
3 233 234 235
3 10 236 233
3 38 237 236
3 37 233 237
3 236 237 233
3 10 228 239
3 90 238 228
3 38 239 238
3 228 238 239
3 11 240 242
3 99 241 240
3 102 242 241
3 240 241 242
3 11 243 245
3 100 244 243
3 99 245 244
3 243 244 245
3 11 246 243
3 92 247 246
3 100 243 247
3 246 247 243
3 11 248 246
3 89 249 248
3 92 246 249
3 248 249 246
3 11 250 252
3 90 251 250
3 89 252 251
3 250 251 252
3 11 253 255
3 102 254 253
3 90 255 254
3 253 254 255
3 12 256 258
3 101 257 256
3 104 258 257
3 256 257 258
3 12 259 256
3 102 260 259
3 101 256 260
3 259 260 256
3 12 261 259
3 38 262 261
3 102 259 262
3 261 262 259
3 12 263 265
3 34 264 263
3 38 265 264
3 263 264 265
3 12 266 263
3 35 267 266
3 34 263 267
3 266 267 263
3 12 258 269
3 104 268 258
3 35 269 268
3 258 268 269
3 13 270 272
3 65 271 270
3 68 272 271
3 270 271 272
3 13 273 270
3 66 274 273
3 65 270 274
3 273 274 270
3 13 275 273
3 35 276 275
3 66 273 276
3 275 276 273
3 13 277 279
3 36 278 277
3 35 279 278
3 277 278 279
3 13 280 277
3 39 281 280
3 36 277 281
3 280 281 277
3 13 272 283
3 68 282 272
3 39 283 282
3 272 282 283
3 14 284 286
3 85 285 284
3 88 286 285
3 284 285 286
3 14 287 289
3 86 288 287
3 85 289 288
3 287 288 289
3 14 290 287
3 69 291 290
3 86 287 291
3 290 291 287
3 14 292 290
3 67 293 292
3 69 290 293
3 292 293 290
3 14 294 296
3 68 295 294
3 67 296 295
3 294 295 296
3 14 297 299
3 88 298 297
3 68 299 298
3 297 298 299
3 15 300 302
3 103 301 300
3 105 302 301
3 300 301 302
3 15 303 305
3 104 304 303
3 103 305 304
3 303 304 305
3 15 306 308
3 66 307 306
3 104 308 307
3 306 307 308
3 15 309 311
3 63 310 309
3 66 311 310
3 309 310 311
3 15 312 314
3 64 313 312
3 63 314 313
3 312 313 314
3 15 302 312
3 105 315 302
3 64 312 315
3 302 315 312
3 16 316 318
3 58 317 316
3 62 318 317
3 316 317 318
3 16 319 316
3 59 320 319
3 58 316 320
3 319 320 316
3 16 321 319
3 45 322 321
3 59 319 322
3 321 322 319
3 16 323 325
3 43 324 323
3 45 325 324
3 323 324 325
3 16 326 323
3 44 327 326
3 43 323 327
3 326 327 323
3 16 318 329
3 62 328 318
3 44 329 328
3 318 328 329
3 17 330 332
3 111 331 330
3 114 332 331
3 330 331 332
3 17 333 335
3 112 334 333
3 111 335 334
3 333 334 335
3 17 336 333
3 64 337 336
3 112 333 337
3 336 337 333
3 17 338 336
3 61 339 338
3 64 336 339
3 338 339 336
3 17 340 342
3 62 341 340
3 61 342 341
3 340 341 342
3 17 343 345
3 114 344 343
3 62 345 344
3 343 344 345
3 18 346 348
3 113 347 346
3 116 348 347
3 346 347 348
3 18 349 346
3 114 350 349
3 113 346 350
3 349 350 346
3 18 351 349
3 44 352 351
3 114 349 352
3 351 352 349
3 18 353 355
3 40 354 353
3 44 355 354
3 353 354 355
3 18 356 353
3 41 357 356
3 40 353 357
3 356 357 353
3 18 348 359
3 116 358 348
3 41 359 358
3 348 358 359
3 19 360 362
3 77 361 360
3 80 362 361
3 360 361 362
3 19 363 360
3 78 364 363
3 77 360 364
3 363 364 360
3 19 365 363
3 41 366 365
3 78 363 366
3 365 366 363
3 19 367 369
3 42 368 367
3 41 369 368
3 367 368 369
3 19 370 367
3 45 371 370
3 42 367 371
3 370 371 367
3 19 362 373
3 80 372 362
3 45 373 372
3 362 372 373
3 20 374 376
3 79 375 374
3 81 376 375
3 374 375 376
3 20 377 379
3 80 378 377
3 79 379 378
3 377 378 379
3 20 380 382
3 59 381 380
3 80 382 381
3 380 381 382
3 20 383 385
3 60 384 383
3 59 385 384
3 383 384 385
3 20 386 388
3 69 387 386
3 60 388 387
3 386 387 388
3 20 376 386
3 81 389 376
3 69 386 389
3 376 389 386
3 21 390 392
3 115 391 390
3 117 392 391
3 390 391 392
3 21 393 395
3 116 394 393
3 115 395 394
3 393 394 395
3 21 396 398
3 78 397 396
3 116 398 397
3 396 397 398
3 21 399 401
3 75 400 399
3 78 401 400
3 399 400 401
3 21 402 404
3 76 403 402
3 75 404 403
3 402 403 404
3 21 392 402
3 117 405 392
3 76 402 405
3 392 405 402
3 22 406 408
3 94 407 406
3 98 408 407
3 406 407 408
3 22 409 406
3 95 410 409
3 94 406 410
3 409 410 406
3 22 411 409
3 51 412 411
3 95 409 412
3 411 412 409
3 22 413 415
3 49 414 413
3 51 415 414
3 413 414 415
3 22 416 413
3 50 417 416
3 49 413 417
3 416 417 413
3 22 408 419
3 98 418 408
3 50 419 418
3 408 418 419
3 23 420 422
3 123 421 420
3 126 422 421
3 420 421 422
3 23 423 425
3 124 424 423
3 123 425 424
3 423 424 425
3 23 426 423
3 100 427 426
3 124 423 427
3 426 427 423
3 23 428 426
3 97 429 428
3 100 426 429
3 428 429 426
3 23 430 432
3 98 431 430
3 97 432 431
3 430 431 432
3 23 433 435
3 126 434 433
3 98 435 434
3 433 434 435
3 24 436 438
3 125 437 436
3 128 438 437
3 436 437 438
3 24 439 436
3 126 440 439
3 125 436 440
3 439 440 436
3 24 441 439
3 50 442 441
3 126 439 442
3 441 442 439
3 24 443 445
3 46 444 443
3 50 445 444
3 443 444 445
3 24 446 443
3 47 447 446
3 46 443 447
3 446 447 443
3 24 438 449
3 128 448 438
3 47 449 448
3 438 448 449
3 25 450 452
3 106 451 450
3 110 452 451
3 450 451 452
3 25 453 450
3 107 454 453
3 106 450 454
3 453 454 450
3 25 455 453
3 47 456 455
3 107 453 456
3 455 456 453
3 25 457 459
3 48 458 457
3 47 459 458
3 457 458 459
3 25 460 457
3 51 461 460
3 48 457 461
3 460 461 457
3 25 452 463
3 110 462 452
3 51 463 462
3 452 462 463
3 26 464 466
3 109 465 464
3 112 466 465
3 464 465 466
3 26 467 469
3 110 468 467
3 109 469 468
3 467 468 469
3 26 470 472
3 95 471 470
3 110 472 471
3 470 471 472
3 26 473 475
3 96 474 473
3 95 475 474
3 473 474 475
3 26 476 478
3 105 477 476
3 96 478 477
3 476 477 478
3 26 466 476
3 112 479 466
3 105 476 479
3 466 479 476
3 27 480 482
3 127 481 480
3 129 482 481
3 480 481 482
3 27 483 485
3 128 484 483
3 127 485 484
3 483 484 485
3 27 486 488
3 107 487 486
3 128 488 487
3 486 487 488
3 27 489 491
3 108 490 489
3 107 491 490
3 489 490 491
3 27 492 494
3 117 493 492
3 108 494 493
3 492 493 494
3 27 482 492
3 129 495 482
3 117 492 495
3 482 495 492
3 28 496 498
3 118 497 496
3 122 498 497
3 496 497 498
3 28 499 496
3 119 500 499
3 118 496 500
3 499 500 496
3 28 501 499
3 57 502 501
3 119 499 502
3 501 502 499
3 28 503 505
3 55 504 503
3 57 505 504
3 503 504 505
3 28 506 503
3 56 507 506
3 55 503 507
3 506 507 503
3 28 498 509
3 122 508 498
3 56 509 508
3 498 508 509
3 29 510 512
3 121 511 510
3 124 512 511
3 510 511 512
3 29 513 515
3 122 514 513
3 121 515 514
3 513 514 515
3 29 516 518
3 93 517 516
3 122 518 517
3 516 517 518
3 29 519 521
3 91 520 519
3 93 521 520
3 519 520 521
3 29 522 524
3 92 523 522
3 91 524 523
3 522 523 524
3 29 512 522
3 124 525 512
3 92 522 525
3 512 525 522
3 30 526 528
3 93 527 526
3 84 528 527
3 526 527 528
3 30 529 526
3 56 530 529
3 93 526 530
3 529 530 526
3 30 531 533
3 52 532 531
3 56 533 532
3 531 532 533
3 30 534 531
3 53 535 534
3 52 531 535
3 534 535 531
3 30 536 538
3 83 537 536
3 53 538 537
3 536 537 538
3 30 528 536
3 84 539 528
3 83 536 539
3 528 539 536
3 31 540 542
3 70 541 540
3 74 542 541
3 540 541 542
3 31 543 540
3 71 544 543
3 70 540 544
3 543 544 540
3 31 545 543
3 53 546 545
3 71 543 546
3 545 546 543
3 31 547 549
3 54 548 547
3 53 549 548
3 547 548 549
3 31 550 547
3 57 551 550
3 54 547 551
3 550 551 547
3 31 542 553
3 74 552 542
3 57 553 552
3 542 552 553
3 32 554 556
3 129 555 554
3 120 556 555
3 554 555 556
3 32 557 554
3 76 558 557
3 129 554 558
3 557 558 554
3 32 559 557
3 73 560 559
3 76 557 560
3 559 560 557
3 32 561 563
3 74 562 561
3 73 563 562
3 561 562 563
3 32 564 566
3 119 565 564
3 74 566 565
3 564 565 566
3 32 567 569
3 120 568 567
3 119 569 568
3 567 568 569
3 33 570 572
3 82 571 570
3 86 572 571
3 570 571 572
3 33 573 575
3 83 574 573
3 82 575 574
3 573 574 575
3 33 576 578
3 71 577 576
3 83 578 577
3 576 577 578
3 33 579 581
3 72 580 579
3 71 581 580
3 579 580 581
3 33 582 584
3 81 583 582
3 72 584 583
3 582 583 584
3 33 572 582
3 86 585 572
3 81 582 585
3 572 585 582
