ply
format ascii 1.0
element vertex 74
property float x
property float y
property float z
element face 144
property list uchar int vertex_indices
end_header
-0.57735 -0.57735 0.57735
0.934172 0.356822 0
0.934172 -0.356822 0
-0.934172 0.356822 0
-0.934172 -0.356822 0
0 0.934172 0.356822
0 0.934172 -0.356822
0.356822 0 -0.934172
-0.356822 0 -0.934172
0 -0.934172 -0.356822
0 -0.934172 0.356822
0.356822 0 0.934172
-0.356822 0 0.934172
0.57735 0.57735 -0.57735
0.57735 0.57735 0.57735
-0.57735 0.57735 -0.57735
-0.57735 0.57735 0.57735
0.57735 -0.57735 -0.57735
0.57735 -0.57735 0.57735
-0.57735 -0.57735 -0.57735
-0.282539 -0.744034 0.457779
-0.458161 -0.285043 0.742763
-0.174992 -0.458559 0.632177
-0.632705 0.174875 0.45783
-0.74056 -0.109622 0.283168
-0.743178 -0.458231 0.283669
-0.918169 0.00239045 0
-0.459826 -0.631659 0.174215
0.457775 0.63307 -0.173865
0.28372 0.743168 -0.458217
0.742671 0.458996 -0.283675
0.457775 0.63307 0.173865
0 0.917992 0
0.742671 0.458996 0.283675
0.28372 0.743168 0.458217
0.632705 0.174875 0.45783
0.458996 0.283675 0.742671
0.74056 -0.109622 0.283168
0.458161 -0.285043 0.742763
0.918169 0.00239045 0
0.743178 -0.458231 0.283669
0.74056 -0.109622 -0.283168
0.743178 -0.458231 -0.283669
0.632828 0.175722 -0.457387
0.45864 -0.284255 -0.742687
0.459279 0.284394 -0.742251
0.459826 -0.631659 0.174215
0.282539 -0.744034 0.457779
0.459889 -0.631375 -0.175157
1.24904e-10 -0.918016 -0.000878992
0.282464 -0.743491 -0.458561
-0.457775 0.63307 0.173865
-0.28372 0.743168 0.458217
-0.742671 0.458996 0.283675
-0.457775 0.63307 -0.173865
-0.742671 0.458996 -0.283675
-0.28372 0.743168 -0.458217
-0.632564 0.173765 -0.458545
-0.45864 0.282698 -0.743321
-0.741099 -0.109117 -0.281928
-0.45872 -0.285744 -0.742225
-0.74407 -0.457621 -0.282714
-0.458996 0.283675 0.742671
-0.459889 -0.631375 -0.175157
-0.283794 -0.743362 -0.457909
-0.174992 0.458559 0.632177
0.174992 0.458559 0.632177
0 -2.16526e-10 0.917992
0.175416 0.459244 -0.631665
-0.17449 0.45763 -0.632967
0.00104353 -0.000322469 -0.918029
0.175498 -0.457236 -0.632995
-0.107948 -0.283421 -0.740634
0.174992 -0.458559 0.632177
3 22 67 73
3 11 73 67
3 12 67 22
3 10 22 73
3 73 38 47
3 18 47 38
3 11 38 73
3 10 73 47
3 70 60 72
3 19 72 60
3 8 60 70
3 7 70 72
3 72 64 71
3 9 71 64
3 19 64 72
3 7 72 71
3 71 50 44
3 17 44 50
3 9 50 71
3 7 71 44
3 56 58 69
3 8 69 58
3 15 58 56
3 6 56 69
3 69 70 68
3 7 68 70
3 8 70 69
3 6 69 68
3 68 45 29
3 13 29 45
3 7 45 68
3 6 68 29
3 34 36 66
3 11 66 36
3 14 36 34
3 5 34 66
3 10 20 22
3 0 21 20
3 12 22 21
3 20 21 22
3 3 23 24
3 12 21 23
3 0 24 21
3 23 21 24
3 3 24 26
3 0 25 24
3 4 26 25
3 24 25 26
3 4 25 27
3 0 20 25
3 10 27 20
3 25 20 27
3 1 28 30
3 6 29 28
3 13 30 29
3 28 29 30
3 1 31 28
3 5 32 31
3 6 28 32
3 31 32 28
3 1 33 31
3 14 34 33
3 5 31 34
3 33 34 31
3 1 35 33
3 11 36 35
3 14 33 36
3 35 36 33
3 1 37 35
3 18 38 37
3 11 35 38
3 37 38 35
3 1 39 37
3 2 40 39
3 18 37 40
3 39 40 37
3 1 41 39
3 17 42 41
3 2 39 42
3 41 42 39
3 1 43 41
3 7 44 43
3 17 41 44
3 43 44 41
3 1 30 43
3 13 45 30
3 7 43 45
3 30 45 43
3 2 46 40
3 10 47 46
3 18 40 47
3 46 47 40
3 2 48 46
3 9 49 48
3 10 46 49
3 48 49 46
3 2 42 48
3 17 50 42
3 9 48 50
3 42 50 48
3 3 51 53
3 5 52 51
3 16 53 52
3 51 52 53
3 3 54 51
3 6 32 54
3 5 51 32
3 54 32 51
3 3 55 54
3 15 56 55
3 6 54 56
3 55 56 54
3 3 57 55
3 8 58 57
3 15 55 58
3 57 58 55
3 3 59 57
3 19 60 59
3 8 57 60
3 59 60 57
3 3 26 59
3 4 61 26
3 19 59 61
3 26 61 59
3 3 53 23
3 16 62 53
3 12 23 62
3 53 62 23
3 4 63 61
3 9 64 63
3 19 61 64
3 63 64 61
3 4 27 63
3 10 49 27
3 9 63 49
3 27 49 63
3 5 65 52
3 12 62 65
3 16 52 62
3 65 62 52
3 5 66 65
3 11 67 66
3 12 65 67
3 66 67 65
